<svg width="16" height="16" viewBox="0 0 16 16" fill="none" xmlns="http://www.w3.org/2000/svg">
<path fill-rule="evenodd" clip-rule="evenodd" d="M12.6667 12.6663C12.6667 13.0343 12.3673 13.333 12 13.333H4C3.63267 13.333 3.33333 13.0343 3.33333 12.6663V5.33301C3.33333 4.96501 3.63267 4.66634 4 4.66634V5.33301C4 6.06834 4.598 6.66634 5.33333 6.66634H10.6667C11.402 6.66634 12 6.06834 12 5.33301V4.66634C12.3673 4.66634 12.6667 4.96501 12.6667 5.33301V12.6663ZM5.33333 2.66634L10.6667 2.66834V3.33301V5.33301H5.33333V3.33301V2.66634ZM12 3.33301V2.66634C12 1.93101 11.402 1.33301 10.6667 1.33301H5.33333C4.598 1.33301 4 1.93101 4 2.66634V3.33301C2.89733 3.33301 2 4.23034 2 5.33301V12.6663C2 13.769 2.89733 14.6663 4 14.6663H12C13.1027 14.6663 14 13.769 14 12.6663V5.33301C14 4.23034 13.1027 3.33301 12 3.33301V3.33301Z" fill="white"/>
<mask id="mask0_51_993" style="mask-type:luminance" maskUnits="userSpaceOnUse" x="1" y="0" width="14" height="16">
<path fill-rule="evenodd" clip-rule="evenodd" d="M12.6667 12.6663C12.6667 13.0343 12.3673 13.333 12 13.333H4C3.63267 13.333 3.33333 13.0343 3.33333 12.6663V5.33301C3.33333 4.96501 3.63267 4.66634 4 4.66634V5.33301C4 6.06834 4.598 6.66634 5.33333 6.66634H10.6667C11.402 6.66634 12 6.06834 12 5.33301V4.66634C12.3673 4.66634 12.6667 4.96501 12.6667 5.33301V12.6663ZM5.33333 2.66634L10.6667 2.66834V3.33301V5.33301H5.33333V3.33301V2.66634ZM12 3.33301V2.66634C12 1.93101 11.402 1.33301 10.6667 1.33301H5.33333C4.598 1.33301 4 1.93101 4 2.66634V3.33301C2.89733 3.33301 2 4.23034 2 5.33301V12.6663C2 13.769 2.89733 14.6663 4 14.6663H12C13.1027 14.6663 14 13.769 14 12.6663V5.33301C14 4.23034 13.1027 3.33301 12 3.33301V3.33301Z" fill="white"/>
<path d="M4 4.66634H4.5V4.16634H4V4.66634ZM12 4.66634V4.16634H11.5V4.66634H12ZM5.33333 2.66634L5.33352 2.16634L4.83333 2.16615V2.66634H5.33333ZM10.6667 2.66834H11.1667V2.16853L10.6669 2.16834L10.6667 2.66834ZM10.6667 5.33301V5.83301H11.1667V5.33301H10.6667ZM5.33333 5.33301H4.83333V5.83301H5.33333V5.33301ZM4 3.33301V3.83301H4.5V3.33301H4ZM12.1667 12.6663C12.1667 12.7579 12.0915 12.833 12 12.833V13.833C12.6432 13.833 13.1667 13.3108 13.1667 12.6663H12.1667ZM12 12.833H4V13.833H12V12.833ZM4 12.833C3.90848 12.833 3.83333 12.7579 3.83333 12.6663H2.83333C2.83333 13.3108 3.35685 13.833 4 13.833V12.833ZM3.83333 12.6663V5.33301H2.83333V12.6663H3.83333ZM3.83333 5.33301C3.83333 5.24148 3.90848 5.16634 4 5.16634V4.16634C3.35685 4.16634 2.83333 4.68854 2.83333 5.33301H3.83333ZM3.5 4.66634V5.33301H4.5V4.66634H3.5ZM3.5 5.33301C3.5 6.34448 4.32186 7.16634 5.33333 7.16634V6.16634C4.87414 6.16634 4.5 5.7922 4.5 5.33301H3.5ZM5.33333 7.16634H10.6667V6.16634H5.33333V7.16634ZM10.6667 7.16634C11.6781 7.16634 12.5 6.34448 12.5 5.33301H11.5C11.5 5.7922 11.1259 6.16634 10.6667 6.16634V7.16634ZM12.5 5.33301V4.66634H11.5V5.33301H12.5ZM12 5.16634C12.0915 5.16634 12.1667 5.24148 12.1667 5.33301H13.1667C13.1667 4.68854 12.6432 4.16634 12 4.16634V5.16634ZM12.1667 5.33301V12.6663H13.1667V5.33301H12.1667ZM5.33315 3.16634L10.6665 3.16834L10.6669 2.16834L5.33352 2.16634L5.33315 3.16634ZM10.1667 2.66834V3.33301H11.1667V2.66834H10.1667ZM10.1667 3.33301V5.33301H11.1667V3.33301H10.1667ZM10.6667 4.83301H5.33333V5.83301H10.6667V4.83301ZM5.83333 5.33301V3.33301H4.83333V5.33301H5.83333ZM5.83333 3.33301V2.66634H4.83333V3.33301H5.83333ZM12.5 3.33301V2.66634H11.5V3.33301H12.5ZM12.5 2.66634C12.5 1.65487 11.6781 0.833008 10.6667 0.833008V1.83301C11.1259 1.83301 11.5 2.20715 11.5 2.66634H12.5ZM10.6667 0.833008H5.33333V1.83301H10.6667V0.833008ZM5.33333 0.833008C4.32186 0.833008 3.5 1.65487 3.5 2.66634H4.5C4.5 2.20715 4.87414 1.83301 5.33333 1.83301V0.833008ZM3.5 2.66634V3.33301H4.5V2.66634H3.5ZM4 2.83301C2.62119 2.83301 1.5 3.9542 1.5 5.33301H2.5C2.5 4.50648 3.17348 3.83301 4 3.83301V2.83301ZM1.5 5.33301V12.6663H2.5V5.33301H1.5ZM1.5 12.6663C1.5 14.0452 2.62119 15.1663 4 15.1663V14.1663C3.17348 14.1663 2.5 13.4929 2.5 12.6663H1.5ZM4 15.1663H12V14.1663H4V15.1663ZM12 15.1663C13.3788 15.1663 14.5 14.0452 14.5 12.6663H13.5C13.5 13.4929 12.8265 14.1663 12 14.1663V15.1663ZM14.5 12.6663V5.33301H13.5V12.6663H14.5ZM14.5 5.33301C14.5 3.9542 13.3788 2.83301 12 2.83301V3.83301C12.8265 3.83301 13.5 4.50648 13.5 5.33301H14.5Z" fill="white"/>
</mask>
<g mask="url(#mask0_51_993)">
</g>
</svg>
