<svg width="16" height="16" viewBox="0 0 16 16" fill="none" xmlns="http://www.w3.org/2000/svg">
<path fill-rule="evenodd" clip-rule="evenodd" d="M12.6667 12.6663C12.6667 13.0343 12.3673 13.333 12 13.333H4C3.63267 13.333 3.33333 13.0343 3.33333 12.6663V5.33301C3.33333 4.96501 3.63267 4.66634 4 4.66634V5.33301C4 6.06834 4.598 6.66634 5.33333 6.66634H10.6667C11.402 6.66634 12 6.06834 12 5.33301V4.66634C12.3673 4.66634 12.6667 4.96501 12.6667 5.33301V12.6663ZM5.33333 2.66634L10.6667 2.66834V3.33301V5.33301H5.33333V3.33301V2.66634ZM12 3.33301V2.66634C12 1.93101 11.402 1.33301 10.6667 1.33301H5.33333C4.598 1.33301 4 1.93101 4 2.66634V3.33301C2.89733 3.33301 2 4.23034 2 5.33301V12.6663C2 13.769 2.89733 14.6663 4 14.6663H12C13.1027 14.6663 14 13.769 14 12.6663V5.33301C14 4.23034 13.1027 3.33301 12 3.33301V3.33301Z" fill="white"/>
<mask id="mask0_51_990" style="mask-type:luminance" maskUnits="userSpaceOnUse" x="2" y="1" width="12" height="14">
<path fill-rule="evenodd" clip-rule="evenodd" d="M12.6667 12.6663C12.6667 13.0343 12.3673 13.333 12 13.333H4C3.63267 13.333 3.33333 13.0343 3.33333 12.6663V5.33301C3.33333 4.96501 3.63267 4.66634 4 4.66634V5.33301C4 6.06834 4.598 6.66634 5.33333 6.66634H10.6667C11.402 6.66634 12 6.06834 12 5.33301V4.66634C12.3673 4.66634 12.6667 4.96501 12.6667 5.33301V12.6663ZM5.33333 2.66634L10.6667 2.66834V3.33301V5.33301H5.33333V3.33301V2.66634ZM12 3.33301V2.66634C12 1.93101 11.402 1.33301 10.6667 1.33301H5.33333C4.598 1.33301 4 1.93101 4 2.66634V3.33301C2.89733 3.33301 2 4.23034 2 5.33301V12.6663C2 13.769 2.89733 14.6663 4 14.6663H12C13.1027 14.6663 14 13.769 14 12.6663V5.33301C14 4.23034 13.1027 3.33301 12 3.33301V3.33301Z" fill="white"/>
</mask>
<g mask="url(#mask0_51_990)">
</g>
</svg>
