<svg width="1680" height="255" viewBox="0 0 1680 255" fill="none" xmlns="http://www.w3.org/2000/svg">
<g clip-path="url(#clip0_51_1493)">
<mask id="path-1-inside-1_51_1493" fill="white">
<path d="M0 0H1680V255H0V0Z"/>
</mask>
<path d="M0 0H1680V255H0V0Z" fill="#06B9FC"/>
<mask id="path-3-outside-2_51_1493" maskUnits="userSpaceOnUse" x="45" y="-57" width="436" height="371" fill="black">
<rect fill="white" x="45" y="-57" width="436" height="371"/>
<path d="M170.617 201.711L243.714 -55.2656H279.124L258.637 44.6416L179.976 313H144.818L170.617 201.711ZM94.9912 -55.2656L153.165 196.652L170.617 313H135.713L46.4287 -55.2656H94.9912ZM373.72 196.399L430.629 -55.2656H479.444L390.413 313H355.509L373.72 196.399ZM284.436 -55.2656L355.509 201.711L381.308 313H346.15L270.271 44.6416L249.531 -55.2656H284.436Z"/>
</mask>
<path d="M170.617 201.711L169.655 201.437L169.649 201.461L169.643 201.485L170.617 201.711ZM243.714 -55.2656V-56.2656H242.959L242.752 -55.5392L243.714 -55.2656ZM279.124 -55.2656L280.104 -55.0647L280.35 -56.2656H279.124V-55.2656ZM258.637 44.6416L259.596 44.9229L259.608 44.8831L259.616 44.8425L258.637 44.6416ZM179.976 313V314H180.725L180.935 313.281L179.976 313ZM144.818 313L143.844 312.774L143.56 314H144.818V313ZM94.9912 -55.2656L95.9656 -55.4906L95.7866 -56.2656H94.9912V-55.2656ZM153.165 196.652L154.154 196.504L154.148 196.465L154.139 196.427L153.165 196.652ZM170.617 313V314H171.778L171.606 312.852L170.617 313ZM135.713 313L134.741 313.236L134.926 314H135.713V313ZM46.4287 -55.2656V-56.2656H45.1573L45.4569 -55.03L46.4287 -55.2656ZM373.72 196.399L372.744 196.179L372.737 196.212L372.732 196.245L373.72 196.399ZM430.629 -55.2656V-56.2656H429.83L429.654 -55.4862L430.629 -55.2656ZM479.444 -55.2656L480.416 -55.0306L480.715 -56.2656H479.444V-55.2656ZM390.413 313V314H391.2L391.385 313.235L390.413 313ZM355.509 313L354.521 312.846L354.34 314H355.509V313ZM284.436 -55.2656L285.399 -55.5322L285.197 -56.2656H284.436V-55.2656ZM355.509 201.711L356.483 201.485L356.478 201.465L356.473 201.444L355.509 201.711ZM381.308 313V314H382.566L382.282 312.774L381.308 313ZM346.15 313L345.188 313.272L345.394 314H346.15V313ZM270.271 44.6416L269.292 44.8449L269.3 44.8796L269.309 44.9137L270.271 44.6416ZM249.531 -55.2656V-56.2656H248.302L248.552 -55.0624L249.531 -55.2656ZM171.579 201.985L244.676 -54.992L242.752 -55.5392L169.655 201.437L171.579 201.985ZM243.714 -54.2656H279.124V-56.2656H243.714V-54.2656ZM278.144 -55.4665L257.657 44.4407L259.616 44.8425L280.104 -55.0647L278.144 -55.4665ZM257.677 44.3603L179.016 312.719L180.935 313.281L259.596 44.9229L257.677 44.3603ZM179.976 312H144.818V314H179.976V312ZM145.793 313.226L171.591 201.937L169.643 201.485L143.844 312.774L145.793 313.226ZM94.0169 -55.0406L152.191 196.877L154.139 196.427L95.9656 -55.4906L94.0169 -55.0406ZM152.176 196.801L169.628 313.148L171.606 312.852L154.154 196.504L152.176 196.801ZM170.617 312H135.713V314H170.617V312ZM136.685 312.764L47.4006 -55.5012L45.4569 -55.03L134.741 313.236L136.685 312.764ZM46.4287 -54.2656H94.9912V-56.2656H46.4287V-54.2656ZM374.695 196.62L431.604 -55.0451L429.654 -55.4862L372.744 196.179L374.695 196.62ZM430.629 -54.2656H479.444V-56.2656H430.629V-54.2656ZM478.472 -55.5006L389.441 312.765L391.385 313.235L480.416 -55.0306L478.472 -55.5006ZM390.413 312H355.509V314H390.413V312ZM356.497 313.154L374.708 196.554L372.732 196.245L354.521 312.846L356.497 313.154ZM283.472 -54.9991L354.545 201.978L356.473 201.444L285.399 -55.5322L283.472 -54.9991ZM354.535 201.937L380.333 313.226L382.282 312.774L356.483 201.485L354.535 201.937ZM381.308 312H346.15V314H381.308V312ZM347.113 312.728L271.234 44.3695L269.309 44.9137L345.188 313.272L347.113 312.728ZM271.251 44.4383L250.51 -55.4689L248.552 -55.0624L269.292 44.8449L271.251 44.4383ZM249.531 -54.2656H284.436V-56.2656H249.531V-54.2656Z" fill="#1F1541" fill-opacity="0.2" mask="url(#path-3-outside-2_51_1493)"/>
<path d="M297.295 112H289.576L289.627 108.014H297.295C299.936 108.014 302.136 107.464 303.896 106.363C305.657 105.246 306.977 103.689 307.857 101.691C308.755 99.6771 309.203 97.3242 309.203 94.6328V92.373C309.203 90.2572 308.949 88.3783 308.441 86.7363C307.934 85.0775 307.189 83.681 306.207 82.5469C305.225 81.3958 304.023 80.5241 302.602 79.9316C301.197 79.3392 299.58 79.043 297.752 79.043H289.424V75.0312H297.752C300.173 75.0312 302.382 75.4375 304.379 76.25C306.376 77.0456 308.094 78.2051 309.533 79.7285C310.989 81.235 312.106 83.0632 312.885 85.2129C313.663 87.3457 314.053 89.7493 314.053 92.4238V94.6328C314.053 97.3073 313.663 99.7194 312.885 101.869C312.106 104.002 310.98 105.822 309.508 107.328C308.052 108.835 306.292 109.994 304.227 110.807C302.178 111.602 299.868 112 297.295 112ZM292.191 75.0312V112H287.291V75.0312H292.191ZM319.981 98.5684V97.9844C319.981 96.0039 320.269 94.1673 320.844 92.4746C321.42 90.765 322.249 89.2839 323.333 88.0312C324.416 86.7617 325.728 85.7799 327.268 85.0859C328.808 84.375 330.535 84.0195 332.448 84.0195C334.377 84.0195 336.112 84.375 337.653 85.0859C339.21 85.7799 340.53 86.7617 341.614 88.0312C342.714 89.2839 343.552 90.765 344.127 92.4746C344.703 94.1673 344.991 96.0039 344.991 97.9844V98.5684C344.991 100.549 344.703 102.385 344.127 104.078C343.552 105.771 342.714 107.252 341.614 108.521C340.53 109.774 339.219 110.756 337.678 111.467C336.155 112.161 334.428 112.508 332.499 112.508C330.569 112.508 328.834 112.161 327.293 111.467C325.753 110.756 324.433 109.774 323.333 108.521C322.249 107.252 321.42 105.771 320.844 104.078C320.269 102.385 319.981 100.549 319.981 98.5684ZM324.678 97.9844V98.5684C324.678 99.9395 324.839 101.234 325.161 102.453C325.482 103.655 325.965 104.721 326.608 105.652C327.268 106.583 328.089 107.32 329.071 107.861C330.053 108.386 331.195 108.648 332.499 108.648C333.785 108.648 334.911 108.386 335.875 107.861C336.857 107.32 337.67 106.583 338.313 105.652C338.956 104.721 339.439 103.655 339.76 102.453C340.099 101.234 340.268 99.9395 340.268 98.5684V97.9844C340.268 96.6302 340.099 95.3522 339.76 94.1504C339.439 92.9316 338.948 91.8568 338.288 90.9258C337.644 89.9779 336.832 89.2331 335.85 88.6914C334.885 88.1497 333.751 87.8789 332.448 87.8789C331.161 87.8789 330.027 88.1497 329.045 88.6914C328.081 89.2331 327.268 89.9779 326.608 90.9258C325.965 91.8568 325.482 92.9316 325.161 94.1504C324.839 95.3522 324.678 96.6302 324.678 97.9844ZM356.099 90.3926V112H351.401V84.5273H355.845L356.099 90.3926ZM354.981 97.2227L353.026 97.1465C353.043 95.2676 353.323 93.5326 353.864 91.9414C354.406 90.3333 355.168 88.9368 356.149 87.752C357.131 86.5671 358.299 85.653 359.653 85.0098C361.024 84.3496 362.539 84.0195 364.198 84.0195C365.552 84.0195 366.771 84.2057 367.854 84.5781C368.938 84.9336 369.86 85.5091 370.622 86.3047C371.401 87.1003 371.993 88.1328 372.399 89.4023C372.806 90.6549 373.009 92.1868 373.009 93.998V112H368.286V93.9473C368.286 92.5085 368.075 91.3574 367.651 90.4941C367.228 89.6139 366.61 88.9792 365.798 88.5898C364.985 88.1836 363.987 87.9805 362.802 87.9805C361.634 87.9805 360.567 88.2259 359.603 88.7168C358.655 89.2077 357.834 89.8848 357.14 90.748C356.463 91.6113 355.929 92.6016 355.54 93.7188C355.168 94.819 354.981 95.987 354.981 97.2227ZM383.38 73V76.25C383.38 77.2656 383.203 78.3405 382.847 79.4746C382.509 80.5918 382.009 81.6751 381.349 82.7246C380.689 83.7572 379.893 84.6628 378.962 85.4414L376.271 83.5879C377.067 82.4707 377.667 81.3281 378.074 80.1602C378.497 78.9753 378.708 77.6973 378.708 76.3262V73H383.38ZM401.064 84.5273V88.1328H386.211V84.5273H401.064ZM391.238 77.8496H395.935V105.195C395.935 106.126 396.079 106.829 396.367 107.303C396.655 107.777 397.027 108.09 397.484 108.242C397.941 108.395 398.432 108.471 398.957 108.471C399.346 108.471 399.753 108.437 400.176 108.369C400.616 108.285 400.946 108.217 401.166 108.166L401.191 112C400.819 112.118 400.328 112.229 399.719 112.33C399.126 112.449 398.407 112.508 397.56 112.508C396.409 112.508 395.351 112.279 394.387 111.822C393.422 111.365 392.652 110.604 392.076 109.537C391.518 108.454 391.238 106.998 391.238 105.17V77.8496ZM422.772 75.0312H427.52L439.632 105.17L451.718 75.0312H456.491L441.46 112H437.753L422.772 75.0312ZM421.224 75.0312H425.413L426.099 97.5781V112H421.224V75.0312ZM453.825 75.0312H458.015V112H453.14V97.5781L453.825 75.0312ZM471.535 84.5273V112H466.812V84.5273H471.535ZM466.456 77.2402C466.456 76.4785 466.685 75.8353 467.142 75.3105C467.616 74.7858 468.31 74.5234 469.224 74.5234C470.121 74.5234 470.807 74.7858 471.281 75.3105C471.772 75.8353 472.017 76.4785 472.017 77.2402C472.017 77.9681 471.772 78.5944 471.281 79.1191C470.807 79.627 470.121 79.8809 469.224 79.8809C468.31 79.8809 467.616 79.627 467.142 79.1191C466.685 78.5944 466.456 77.9681 466.456 77.2402ZM495.592 104.713C495.592 104.036 495.439 103.41 495.135 102.834C494.847 102.242 494.246 101.708 493.332 101.234C492.435 100.743 491.081 100.32 489.269 99.9648C487.746 99.6432 486.366 99.2624 485.131 98.8223C483.912 98.3822 482.871 97.849 482.008 97.2227C481.161 96.5964 480.51 95.86 480.053 95.0137C479.596 94.1673 479.367 93.1771 479.367 92.043C479.367 90.9596 479.604 89.9355 480.078 88.9707C480.569 88.0059 481.254 87.151 482.135 86.4062C483.032 85.6615 484.107 85.0775 485.359 84.6543C486.612 84.2311 488.008 84.0195 489.549 84.0195C491.749 84.0195 493.628 84.4089 495.185 85.1875C496.743 85.9661 497.936 87.0072 498.765 88.3105C499.595 89.597 500.01 91.0273 500.01 92.6016H495.312C495.312 91.8398 495.084 91.1035 494.627 90.3926C494.187 89.6647 493.535 89.0638 492.672 88.5898C491.825 88.1159 490.784 87.8789 489.549 87.8789C488.245 87.8789 487.187 88.082 486.375 88.4883C485.579 88.8776 484.995 89.377 484.623 89.9863C484.267 90.5957 484.09 91.2389 484.09 91.916C484.09 92.4238 484.174 92.8809 484.344 93.2871C484.53 93.6764 484.851 94.0404 485.308 94.3789C485.765 94.7005 486.409 95.0052 487.238 95.293C488.068 95.5807 489.125 95.8685 490.412 96.1562C492.663 96.6641 494.517 97.2734 495.973 97.9844C497.428 98.6953 498.512 99.5671 499.223 100.6C499.933 101.632 500.289 102.885 500.289 104.357C500.289 105.559 500.035 106.66 499.527 107.658C499.036 108.657 498.317 109.52 497.369 110.248C496.438 110.959 495.321 111.518 494.017 111.924C492.731 112.313 491.284 112.508 489.676 112.508C487.255 112.508 485.207 112.076 483.531 111.213C481.855 110.35 480.586 109.232 479.723 107.861C478.859 106.49 478.428 105.043 478.428 103.52H483.15C483.218 104.806 483.59 105.83 484.267 106.592C484.945 107.337 485.774 107.87 486.756 108.191C487.737 108.496 488.711 108.648 489.676 108.648C490.962 108.648 492.037 108.479 492.9 108.141C493.78 107.802 494.449 107.337 494.906 106.744C495.363 106.152 495.592 105.475 495.592 104.713ZM522.975 104.713C522.975 104.036 522.823 103.41 522.518 102.834C522.23 102.242 521.629 101.708 520.715 101.234C519.818 100.743 518.464 100.32 516.653 99.9648C515.129 99.6432 513.75 99.2624 512.514 98.8223C511.295 98.3822 510.254 97.849 509.391 97.2227C508.545 96.5964 507.893 95.86 507.436 95.0137C506.979 94.1673 506.75 93.1771 506.75 92.043C506.75 90.9596 506.987 89.9355 507.461 88.9707C507.952 88.0059 508.638 87.151 509.518 86.4062C510.415 85.6615 511.49 85.0775 512.742 84.6543C513.995 84.2311 515.392 84.0195 516.932 84.0195C519.132 84.0195 521.011 84.4089 522.569 85.1875C524.126 85.9661 525.319 87.0072 526.149 88.3105C526.978 89.597 527.393 91.0273 527.393 92.6016H522.696C522.696 91.8398 522.467 91.1035 522.01 90.3926C521.57 89.6647 520.918 89.0638 520.055 88.5898C519.209 88.1159 518.168 87.8789 516.932 87.8789C515.629 87.8789 514.571 88.082 513.758 88.4883C512.963 88.8776 512.379 89.377 512.006 89.9863C511.651 90.5957 511.473 91.2389 511.473 91.916C511.473 92.4238 511.558 92.8809 511.727 93.2871C511.913 93.6764 512.235 94.0404 512.692 94.3789C513.149 94.7005 513.792 95.0052 514.621 95.293C515.451 95.5807 516.509 95.8685 517.795 96.1562C520.047 96.6641 521.9 97.2734 523.356 97.9844C524.812 98.6953 525.895 99.5671 526.606 100.6C527.317 101.632 527.672 102.885 527.672 104.357C527.672 105.559 527.418 106.66 526.91 107.658C526.42 108.657 525.7 109.52 524.752 110.248C523.821 110.959 522.704 111.518 521.401 111.924C520.114 112.313 518.667 112.508 517.059 112.508C514.638 112.508 512.59 112.076 510.914 111.213C509.239 110.35 507.969 109.232 507.106 107.861C506.242 106.49 505.811 105.043 505.811 103.52H510.534C510.601 104.806 510.974 105.83 511.651 106.592C512.328 107.337 513.157 107.87 514.139 108.191C515.121 108.496 516.094 108.648 517.059 108.648C518.345 108.648 519.42 108.479 520.284 108.141C521.164 107.802 521.832 107.337 522.289 106.744C522.746 106.152 522.975 105.475 522.975 104.713ZM562.177 78.3066L549.939 112H544.937L559.029 75.0312H562.253L562.177 78.3066ZM572.435 112L560.171 78.3066L560.095 75.0312H563.32L577.462 112H572.435ZM571.8 98.3145V102.326H551.031V98.3145H571.8ZM618.772 108.014V112H600.287V108.014H618.772ZM601.252 75.0312V112H596.352V75.0312H601.252ZM640.391 107.303V93.1602C640.391 92.0768 640.171 91.1374 639.731 90.3418C639.308 89.5293 638.665 88.903 637.801 88.4629C636.938 88.0228 635.872 87.8027 634.602 87.8027C633.417 87.8027 632.376 88.0059 631.479 88.4121C630.599 88.8184 629.905 89.3516 629.397 90.0117C628.906 90.6719 628.661 91.3828 628.661 92.1445H623.964C623.964 91.1628 624.217 90.1895 624.725 89.2246C625.233 88.2598 625.961 87.388 626.909 86.6094C627.874 85.8138 629.025 85.1875 630.362 84.7305C631.716 84.2565 633.223 84.0195 634.882 84.0195C636.879 84.0195 638.639 84.3581 640.163 85.0352C641.703 85.7122 642.905 86.7363 643.768 88.1074C644.648 89.4616 645.089 91.1628 645.089 93.2109V106.008C645.089 106.922 645.165 107.895 645.317 108.928C645.486 109.96 645.732 110.849 646.053 111.594V112H641.153C640.916 111.458 640.73 110.739 640.594 109.842C640.459 108.928 640.391 108.081 640.391 107.303ZM641.204 95.3438L641.255 98.6445H636.507C635.169 98.6445 633.976 98.7546 632.926 98.9746C631.877 99.1777 630.997 99.4909 630.286 99.9141C629.575 100.337 629.033 100.87 628.661 101.514C628.288 102.14 628.102 102.876 628.102 103.723C628.102 104.586 628.297 105.373 628.686 106.084C629.076 106.795 629.66 107.362 630.438 107.785C631.234 108.191 632.207 108.395 633.358 108.395C634.797 108.395 636.066 108.09 637.167 107.48C638.267 106.871 639.139 106.126 639.782 105.246C640.442 104.366 640.798 103.511 640.848 102.682L642.854 104.941C642.736 105.652 642.414 106.439 641.889 107.303C641.365 108.166 640.662 108.995 639.782 109.791C638.919 110.57 637.886 111.221 636.684 111.746C635.499 112.254 634.162 112.508 632.673 112.508C630.811 112.508 629.177 112.144 627.772 111.416C626.384 110.688 625.301 109.715 624.522 108.496C623.76 107.26 623.38 105.881 623.38 104.357C623.38 102.885 623.667 101.59 624.243 100.473C624.818 99.3385 625.648 98.3991 626.731 97.6543C627.815 96.8926 629.118 96.3171 630.641 95.9277C632.165 95.5384 633.866 95.3438 635.745 95.3438H641.204ZM657.695 89.8086V122.562H652.972V84.5273H657.288L657.695 89.8086ZM676.204 98.0352V98.5684C676.204 100.566 675.967 102.419 675.493 104.129C675.019 105.822 674.325 107.294 673.411 108.547C672.514 109.799 671.405 110.773 670.085 111.467C668.765 112.161 667.25 112.508 665.54 112.508C663.797 112.508 662.256 112.22 660.919 111.645C659.582 111.069 658.448 110.231 657.517 109.131C656.586 108.031 655.841 106.71 655.282 105.17C654.741 103.63 654.368 101.895 654.165 99.9648V97.1211C654.368 95.0898 654.749 93.2702 655.308 91.6621C655.866 90.054 656.603 88.6829 657.517 87.5488C658.448 86.3978 659.573 85.526 660.894 84.9336C662.214 84.3242 663.737 84.0195 665.464 84.0195C667.191 84.0195 668.723 84.3581 670.06 85.0352C671.397 85.6953 672.523 86.6432 673.437 87.8789C674.351 89.1146 675.036 90.5957 675.493 92.3223C675.967 94.0319 676.204 95.9362 676.204 98.0352ZM671.482 98.5684V98.0352C671.482 96.6641 671.338 95.3776 671.05 94.1758C670.762 92.957 670.314 91.8906 669.704 90.9766C669.112 90.0456 668.35 89.3177 667.419 88.793C666.488 88.2513 665.379 87.9805 664.093 87.9805C662.908 87.9805 661.876 88.1836 660.995 88.5898C660.132 88.9961 659.396 89.5462 658.786 90.2402C658.177 90.9173 657.678 91.696 657.288 92.5762C656.916 93.4395 656.637 94.3366 656.45 95.2676V101.844C656.789 103.029 657.263 104.146 657.872 105.195C658.482 106.228 659.294 107.066 660.31 107.709C661.325 108.335 662.603 108.648 664.144 108.648C665.413 108.648 666.505 108.386 667.419 107.861C668.35 107.32 669.112 106.583 669.704 105.652C670.314 104.721 670.762 103.655 671.05 102.453C671.338 101.234 671.482 99.9395 671.482 98.5684ZM682.793 109.512C682.793 108.716 683.038 108.048 683.529 107.506C684.037 106.947 684.765 106.668 685.713 106.668C686.661 106.668 687.38 106.947 687.871 107.506C688.379 108.048 688.633 108.716 688.633 109.512C688.633 110.29 688.379 110.951 687.871 111.492C687.38 112.034 686.661 112.305 685.713 112.305C684.765 112.305 684.037 112.034 683.529 111.492C683.038 110.951 682.793 110.29 682.793 109.512ZM306.994 169.656C306.994 168.793 306.859 168.031 306.588 167.371C306.334 166.694 305.877 166.085 305.217 165.543C304.574 165.001 303.676 164.485 302.525 163.994C301.391 163.503 299.952 163.004 298.209 162.496C296.381 161.954 294.73 161.354 293.258 160.693C291.785 160.016 290.524 159.246 289.475 158.383C288.425 157.52 287.621 156.529 287.062 155.412C286.504 154.295 286.225 153.017 286.225 151.578C286.225 150.139 286.521 148.811 287.113 147.592C287.706 146.373 288.552 145.315 289.652 144.418C290.77 143.504 292.098 142.793 293.639 142.285C295.179 141.777 296.897 141.523 298.793 141.523C301.569 141.523 303.922 142.057 305.852 143.123C307.798 144.173 309.279 145.552 310.295 147.262C311.311 148.954 311.818 150.766 311.818 152.695H306.943C306.943 151.307 306.647 150.08 306.055 149.014C305.462 147.93 304.565 147.084 303.363 146.475C302.161 145.848 300.638 145.535 298.793 145.535C297.049 145.535 295.611 145.798 294.477 146.322C293.342 146.847 292.496 147.558 291.938 148.455C291.396 149.352 291.125 150.376 291.125 151.527C291.125 152.306 291.286 153.017 291.607 153.66C291.946 154.286 292.462 154.87 293.156 155.412C293.867 155.954 294.764 156.453 295.848 156.91C296.948 157.367 298.26 157.807 299.783 158.23C301.882 158.823 303.693 159.483 305.217 160.211C306.74 160.939 307.993 161.76 308.975 162.674C309.973 163.571 310.71 164.595 311.184 165.746C311.674 166.88 311.92 168.167 311.92 169.605C311.92 171.112 311.615 172.475 311.006 173.693C310.396 174.912 309.525 175.953 308.391 176.816C307.257 177.68 305.894 178.348 304.303 178.822C302.729 179.279 300.968 179.508 299.021 179.508C297.312 179.508 295.628 179.271 293.969 178.797C292.327 178.323 290.829 177.612 289.475 176.664C288.137 175.716 287.062 174.548 286.25 173.16C285.454 171.755 285.057 170.13 285.057 168.285H289.932C289.932 169.555 290.177 170.646 290.668 171.561C291.159 172.458 291.827 173.202 292.674 173.795C293.537 174.387 294.51 174.827 295.594 175.115C296.694 175.386 297.837 175.521 299.021 175.521C300.731 175.521 302.178 175.285 303.363 174.811C304.548 174.337 305.445 173.66 306.055 172.779C306.681 171.899 306.994 170.858 306.994 169.656ZM329.477 151.527V155.133H314.624V151.527H329.477ZM319.651 144.85H324.348V172.195C324.348 173.126 324.492 173.829 324.78 174.303C325.068 174.777 325.44 175.09 325.897 175.242C326.354 175.395 326.845 175.471 327.37 175.471C327.759 175.471 328.165 175.437 328.588 175.369C329.028 175.285 329.359 175.217 329.579 175.166L329.604 179C329.232 179.118 328.741 179.229 328.131 179.33C327.539 179.449 326.819 179.508 325.973 179.508C324.822 179.508 323.764 179.279 322.799 178.822C321.834 178.365 321.064 177.604 320.489 176.537C319.93 175.454 319.651 173.998 319.651 172.17V144.85ZM351.706 174.303V160.16C351.706 159.077 351.486 158.137 351.046 157.342C350.623 156.529 349.979 155.903 349.116 155.463C348.253 155.023 347.186 154.803 345.917 154.803C344.732 154.803 343.691 155.006 342.794 155.412C341.914 155.818 341.22 156.352 340.712 157.012C340.221 157.672 339.976 158.383 339.976 159.145H335.278C335.278 158.163 335.532 157.189 336.04 156.225C336.548 155.26 337.276 154.388 338.224 153.609C339.188 152.814 340.339 152.188 341.677 151.73C343.031 151.257 344.537 151.02 346.196 151.02C348.194 151.02 349.954 151.358 351.478 152.035C353.018 152.712 354.22 153.736 355.083 155.107C355.963 156.462 356.403 158.163 356.403 160.211V173.008C356.403 173.922 356.479 174.895 356.632 175.928C356.801 176.96 357.047 177.849 357.368 178.594V179H352.468C352.231 178.458 352.045 177.739 351.909 176.842C351.774 175.928 351.706 175.081 351.706 174.303ZM352.519 162.344L352.569 165.645H347.821C346.484 165.645 345.291 165.755 344.241 165.975C343.192 166.178 342.311 166.491 341.601 166.914C340.89 167.337 340.348 167.87 339.976 168.514C339.603 169.14 339.417 169.876 339.417 170.723C339.417 171.586 339.612 172.373 340.001 173.084C340.39 173.795 340.974 174.362 341.753 174.785C342.548 175.191 343.522 175.395 344.673 175.395C346.112 175.395 347.381 175.09 348.481 174.48C349.582 173.871 350.453 173.126 351.097 172.246C351.757 171.366 352.112 170.511 352.163 169.682L354.169 171.941C354.05 172.652 353.729 173.439 353.204 174.303C352.679 175.166 351.977 175.995 351.097 176.791C350.233 177.57 349.201 178.221 347.999 178.746C346.814 179.254 345.477 179.508 343.987 179.508C342.125 179.508 340.492 179.144 339.087 178.416C337.699 177.688 336.616 176.715 335.837 175.496C335.075 174.26 334.694 172.881 334.694 171.357C334.694 169.885 334.982 168.59 335.558 167.473C336.133 166.339 336.963 165.399 338.046 164.654C339.129 163.893 340.433 163.317 341.956 162.928C343.479 162.538 345.181 162.344 347.06 162.344H352.519ZM371.624 176.156L379.267 151.527H384.294L373.275 183.24C373.021 183.917 372.682 184.645 372.259 185.424C371.853 186.219 371.328 186.973 370.685 187.684C370.042 188.395 369.263 188.97 368.349 189.41C367.452 189.867 366.377 190.096 365.124 190.096C364.752 190.096 364.278 190.045 363.703 189.943C363.127 189.842 362.721 189.757 362.484 189.689L362.458 185.881C362.594 185.898 362.805 185.915 363.093 185.932C363.398 185.965 363.609 185.982 363.728 185.982C364.794 185.982 365.7 185.839 366.445 185.551C367.19 185.28 367.816 184.814 368.324 184.154C368.848 183.511 369.297 182.622 369.669 181.488L371.624 176.156ZM366.013 151.527L373.148 172.855L374.367 177.807L370.99 179.533L360.884 151.527H366.013ZM419.282 172.652V151.527H424.004V179H419.51L419.282 172.652ZM420.17 166.863L422.125 166.812C422.125 168.641 421.931 170.333 421.541 171.891C421.169 173.431 420.56 174.768 419.713 175.902C418.867 177.036 417.758 177.925 416.387 178.568C415.016 179.195 413.349 179.508 411.385 179.508C410.048 179.508 408.821 179.313 407.704 178.924C406.603 178.535 405.655 177.934 404.86 177.121C404.064 176.309 403.446 175.251 403.006 173.947C402.583 172.644 402.371 171.078 402.371 169.25V151.527H407.069V169.301C407.069 170.536 407.204 171.561 407.475 172.373C407.763 173.169 408.144 173.803 408.618 174.277C409.108 174.734 409.65 175.056 410.243 175.242C410.852 175.428 411.478 175.521 412.121 175.521C414.119 175.521 415.702 175.141 416.87 174.379C418.037 173.6 418.875 172.559 419.383 171.256C419.908 169.936 420.17 168.471 420.17 166.863ZM436.382 156.809V189.562H431.659V151.527H435.975L436.382 156.809ZM454.891 165.035V165.568C454.891 167.566 454.655 169.419 454.181 171.129C453.707 172.822 453.013 174.294 452.099 175.547C451.201 176.799 450.093 177.773 448.772 178.467C447.452 179.161 445.937 179.508 444.227 179.508C442.484 179.508 440.944 179.22 439.606 178.645C438.269 178.069 437.135 177.231 436.204 176.131C435.273 175.031 434.528 173.71 433.97 172.17C433.428 170.63 433.056 168.895 432.852 166.965V164.121C433.056 162.09 433.436 160.27 433.995 158.662C434.554 157.054 435.29 155.683 436.204 154.549C437.135 153.398 438.261 152.526 439.581 151.934C440.901 151.324 442.425 151.02 444.151 151.02C445.878 151.02 447.41 151.358 448.747 152.035C450.084 152.695 451.21 153.643 452.124 154.879C453.038 156.115 453.724 157.596 454.181 159.322C454.655 161.032 454.891 162.936 454.891 165.035ZM450.169 165.568V165.035C450.169 163.664 450.025 162.378 449.737 161.176C449.449 159.957 449.001 158.891 448.391 157.977C447.799 157.046 447.037 156.318 446.106 155.793C445.175 155.251 444.067 154.98 442.78 154.98C441.595 154.98 440.563 155.184 439.682 155.59C438.819 155.996 438.083 156.546 437.474 157.24C436.864 157.917 436.365 158.696 435.975 159.576C435.603 160.439 435.324 161.337 435.138 162.268V168.844C435.476 170.029 435.95 171.146 436.559 172.195C437.169 173.228 437.981 174.066 438.997 174.709C440.013 175.335 441.291 175.648 442.831 175.648C444.1 175.648 445.192 175.386 446.106 174.861C447.037 174.32 447.799 173.583 448.391 172.652C449.001 171.721 449.449 170.655 449.737 169.453C450.025 168.234 450.169 166.939 450.169 165.568ZM471.179 161.354V165.213H458.788V161.354H471.179ZM487.797 151.527V155.133H472.943V151.527H487.797ZM477.971 144.85H482.668V172.195C482.668 173.126 482.812 173.829 483.099 174.303C483.387 174.777 483.76 175.09 484.217 175.242C484.674 175.395 485.165 175.471 485.689 175.471C486.079 175.471 486.485 175.437 486.908 175.369C487.348 175.285 487.678 175.217 487.898 175.166L487.924 179C487.551 179.118 487.06 179.229 486.451 179.33C485.859 179.449 485.139 179.508 484.293 179.508C483.142 179.508 482.084 179.279 481.119 178.822C480.154 178.365 479.384 177.604 478.808 176.537C478.25 175.454 477.971 173.998 477.971 172.17V144.85ZM492.075 165.568V164.984C492.075 163.004 492.362 161.167 492.938 159.475C493.513 157.765 494.343 156.284 495.426 155.031C496.509 153.762 497.821 152.78 499.362 152.086C500.902 151.375 502.629 151.02 504.541 151.02C506.471 151.02 508.206 151.375 509.746 152.086C511.304 152.78 512.624 153.762 513.707 155.031C514.808 156.284 515.645 157.765 516.221 159.475C516.797 161.167 517.084 163.004 517.084 164.984V165.568C517.084 167.549 516.797 169.385 516.221 171.078C515.645 172.771 514.808 174.252 513.707 175.521C512.624 176.774 511.312 177.756 509.772 178.467C508.248 179.161 506.522 179.508 504.592 179.508C502.662 179.508 500.927 179.161 499.387 178.467C497.847 177.756 496.526 176.774 495.426 175.521C494.343 174.252 493.513 172.771 492.938 171.078C492.362 169.385 492.075 167.549 492.075 165.568ZM496.772 164.984V165.568C496.772 166.939 496.933 168.234 497.254 169.453C497.576 170.655 498.058 171.721 498.701 172.652C499.362 173.583 500.183 174.32 501.164 174.861C502.146 175.386 503.289 175.648 504.592 175.648C505.879 175.648 507.004 175.386 507.969 174.861C508.951 174.32 509.763 173.583 510.407 172.652C511.05 171.721 511.532 170.655 511.854 169.453C512.192 168.234 512.362 166.939 512.362 165.568V164.984C512.362 163.63 512.192 162.352 511.854 161.15C511.532 159.932 511.041 158.857 510.381 157.926C509.738 156.978 508.925 156.233 507.944 155.691C506.979 155.15 505.845 154.879 504.541 154.879C503.255 154.879 502.121 155.15 501.139 155.691C500.174 156.233 499.362 156.978 498.701 157.926C498.058 158.857 497.576 159.932 497.254 161.15C496.933 162.352 496.772 163.63 496.772 164.984ZM533.27 161.354V165.213H520.88V161.354H533.27ZM555.702 173.668V140H560.425V179H556.109L555.702 173.668ZM537.218 165.568V165.035C537.218 162.936 537.472 161.032 537.98 159.322C538.505 157.596 539.241 156.115 540.189 154.879C541.154 153.643 542.296 152.695 543.616 152.035C544.954 151.358 546.443 151.02 548.085 151.02C549.812 151.02 551.318 151.324 552.605 151.934C553.908 152.526 555.008 153.398 555.906 154.549C556.82 155.683 557.539 157.054 558.064 158.662C558.588 160.27 558.952 162.09 559.156 164.121V166.457C558.969 168.471 558.605 170.283 558.064 171.891C557.539 173.499 556.82 174.87 555.906 176.004C555.008 177.138 553.908 178.01 552.605 178.619C551.301 179.212 549.778 179.508 548.034 179.508C546.426 179.508 544.954 179.161 543.616 178.467C542.296 177.773 541.154 176.799 540.189 175.547C539.241 174.294 538.505 172.822 537.98 171.129C537.472 169.419 537.218 167.566 537.218 165.568ZM541.941 165.035V165.568C541.941 166.939 542.076 168.226 542.347 169.428C542.635 170.63 543.075 171.688 543.667 172.602C544.26 173.516 545.013 174.235 545.927 174.76C546.841 175.268 547.933 175.521 549.202 175.521C550.76 175.521 552.038 175.191 553.036 174.531C554.052 173.871 554.865 172.999 555.474 171.916C556.083 170.833 556.557 169.656 556.896 168.387V162.268C556.693 161.337 556.396 160.439 556.007 159.576C555.635 158.696 555.144 157.917 554.534 157.24C553.942 156.546 553.206 155.996 552.325 155.59C551.462 155.184 550.438 154.98 549.253 154.98C547.967 154.98 546.858 155.251 545.927 155.793C545.013 156.318 544.26 157.046 543.667 157.977C543.075 158.891 542.635 159.957 542.347 161.176C542.076 162.378 541.941 163.664 541.941 165.035ZM584.457 174.303V160.16C584.457 159.077 584.237 158.137 583.797 157.342C583.373 156.529 582.73 155.903 581.867 155.463C581.004 155.023 579.937 154.803 578.668 154.803C577.483 154.803 576.442 155.006 575.545 155.412C574.664 155.818 573.97 156.352 573.463 157.012C572.972 157.672 572.726 158.383 572.726 159.145H568.029C568.029 158.163 568.283 157.189 568.791 156.225C569.299 155.26 570.026 154.388 570.974 153.609C571.939 152.814 573.09 152.188 574.427 151.73C575.782 151.257 577.288 151.02 578.947 151.02C580.944 151.02 582.705 151.358 584.228 152.035C585.769 152.712 586.97 153.736 587.834 155.107C588.714 156.462 589.154 158.163 589.154 160.211V173.008C589.154 173.922 589.23 174.895 589.383 175.928C589.552 176.96 589.797 177.849 590.119 178.594V179H585.219C584.982 178.458 584.795 177.739 584.66 176.842C584.524 175.928 584.457 175.081 584.457 174.303ZM585.269 162.344L585.32 165.645H580.572C579.235 165.645 578.041 165.755 576.992 165.975C575.942 166.178 575.062 166.491 574.351 166.914C573.64 167.337 573.099 167.87 572.726 168.514C572.354 169.14 572.168 169.876 572.168 170.723C572.168 171.586 572.362 172.373 572.752 173.084C573.141 173.795 573.725 174.362 574.504 174.785C575.299 175.191 576.273 175.395 577.424 175.395C578.862 175.395 580.132 175.09 581.232 174.48C582.332 173.871 583.204 173.126 583.847 172.246C584.508 171.366 584.863 170.511 584.914 169.682L586.92 171.941C586.801 172.652 586.48 173.439 585.955 174.303C585.43 175.166 584.728 175.995 583.847 176.791C582.984 177.57 581.952 178.221 580.75 178.746C579.565 179.254 578.228 179.508 576.738 179.508C574.876 179.508 573.243 179.144 571.838 178.416C570.45 177.688 569.366 176.715 568.588 175.496C567.826 174.26 567.445 172.881 567.445 171.357C567.445 169.885 567.733 168.59 568.308 167.473C568.884 166.339 569.713 165.399 570.797 164.654C571.88 163.893 573.183 163.317 574.707 162.928C576.23 162.538 577.931 162.344 579.81 162.344H585.269ZM608.565 151.527V155.133H593.711V151.527H608.565ZM598.739 144.85H603.436V172.195C603.436 173.126 603.58 173.829 603.867 174.303C604.155 174.777 604.528 175.09 604.985 175.242C605.442 175.395 605.933 175.471 606.457 175.471C606.847 175.471 607.253 175.437 607.676 175.369C608.116 175.285 608.446 175.217 608.666 175.166L608.692 179C608.319 179.118 607.828 179.229 607.219 179.33C606.627 179.449 605.907 179.508 605.061 179.508C603.91 179.508 602.852 179.279 601.887 178.822C600.922 178.365 600.152 177.604 599.576 176.537C599.018 175.454 598.739 173.998 598.739 172.17V144.85ZM625.995 179.508C624.082 179.508 622.347 179.186 620.79 178.543C619.249 177.883 617.921 176.96 616.803 175.775C615.703 174.59 614.857 173.186 614.264 171.561C613.672 169.936 613.376 168.158 613.376 166.229V165.162C613.376 162.928 613.706 160.939 614.366 159.195C615.026 157.435 615.923 155.945 617.057 154.727C618.191 153.508 619.478 152.585 620.917 151.959C622.356 151.333 623.845 151.02 625.385 151.02C627.349 151.02 629.042 151.358 630.464 152.035C631.902 152.712 633.079 153.66 633.993 154.879C634.907 156.081 635.584 157.503 636.024 159.145C636.464 160.77 636.684 162.547 636.684 164.477V166.584H616.169V162.75H631.987V162.395C631.919 161.176 631.665 159.991 631.225 158.84C630.802 157.689 630.125 156.741 629.194 155.996C628.263 155.251 626.994 154.879 625.385 154.879C624.319 154.879 623.337 155.107 622.44 155.564C621.543 156.005 620.773 156.665 620.13 157.545C619.486 158.425 618.987 159.5 618.632 160.77C618.276 162.039 618.098 163.503 618.098 165.162V166.229C618.098 167.532 618.276 168.759 618.632 169.91C619.004 171.044 619.537 172.043 620.231 172.906C620.942 173.77 621.797 174.447 622.796 174.938C623.811 175.428 624.962 175.674 626.249 175.674C627.908 175.674 629.313 175.335 630.464 174.658C631.615 173.981 632.622 173.076 633.485 171.941L636.329 174.201C635.736 175.098 634.983 175.953 634.069 176.766C633.155 177.578 632.029 178.238 630.692 178.746C629.372 179.254 627.806 179.508 625.995 179.508ZM654.863 165.568V164.984C654.863 163.004 655.151 161.167 655.726 159.475C656.302 157.765 657.131 156.284 658.215 155.031C659.298 153.762 660.61 152.78 662.15 152.086C663.69 151.375 665.417 151.02 667.33 151.02C669.259 151.02 670.994 151.375 672.535 152.086C674.092 152.78 675.412 153.762 676.496 155.031C677.596 156.284 678.434 157.765 679.009 159.475C679.585 161.167 679.873 163.004 679.873 164.984V165.568C679.873 167.549 679.585 169.385 679.009 171.078C678.434 172.771 677.596 174.252 676.496 175.521C675.412 176.774 674.101 177.756 672.56 178.467C671.037 179.161 669.31 179.508 667.381 179.508C665.451 179.508 663.716 179.161 662.175 178.467C660.635 177.756 659.315 176.774 658.215 175.521C657.131 174.252 656.302 172.771 655.726 171.078C655.151 169.385 654.863 167.549 654.863 165.568ZM659.56 164.984V165.568C659.56 166.939 659.721 168.234 660.043 169.453C660.364 170.655 660.847 171.721 661.49 172.652C662.15 173.583 662.971 174.32 663.953 174.861C664.935 175.386 666.077 175.648 667.381 175.648C668.667 175.648 669.793 175.386 670.758 174.861C671.739 174.32 672.552 173.583 673.195 172.652C673.838 171.721 674.321 170.655 674.642 169.453C674.981 168.234 675.15 166.939 675.15 165.568V164.984C675.15 163.63 674.981 162.352 674.642 161.15C674.321 159.932 673.83 158.857 673.17 157.926C672.526 156.978 671.714 156.233 670.732 155.691C669.767 155.15 668.633 154.879 667.33 154.879C666.043 154.879 664.909 155.15 663.927 155.691C662.963 156.233 662.15 156.978 661.49 157.926C660.847 158.857 660.364 159.932 660.043 161.15C659.721 162.352 659.56 163.63 659.56 164.984ZM690.981 157.393V179H686.283V151.527H690.727L690.981 157.393ZM689.863 164.223L687.908 164.146C687.925 162.268 688.205 160.533 688.746 158.941C689.288 157.333 690.05 155.937 691.031 154.752C692.013 153.567 693.181 152.653 694.535 152.01C695.906 151.35 697.421 151.02 699.08 151.02C700.434 151.02 701.653 151.206 702.736 151.578C703.82 151.934 704.742 152.509 705.504 153.305C706.283 154.1 706.875 155.133 707.281 156.402C707.688 157.655 707.891 159.187 707.891 160.998V179H703.168V160.947C703.168 159.508 702.957 158.357 702.533 157.494C702.11 156.614 701.492 155.979 700.68 155.59C699.867 155.184 698.869 154.98 697.684 154.98C696.516 154.98 695.449 155.226 694.485 155.717C693.537 156.208 692.716 156.885 692.022 157.748C691.345 158.611 690.811 159.602 690.422 160.719C690.05 161.819 689.863 162.987 689.863 164.223ZM742.319 142.031V179H737.495V142.031H742.319ZM754.202 142.031V146.043H725.638V142.031H754.202ZM768.357 179.508C766.444 179.508 764.709 179.186 763.152 178.543C761.612 177.883 760.283 176.96 759.166 175.775C758.065 174.59 757.219 173.186 756.627 171.561C756.034 169.936 755.738 168.158 755.738 166.229V165.162C755.738 162.928 756.068 160.939 756.728 159.195C757.388 157.435 758.285 155.945 759.42 154.727C760.554 153.508 761.84 152.585 763.279 151.959C764.718 151.333 766.207 151.02 767.748 151.02C769.711 151.02 771.404 151.358 772.826 152.035C774.265 152.712 775.441 153.66 776.355 154.879C777.269 156.081 777.946 157.503 778.386 159.145C778.826 160.77 779.046 162.547 779.046 164.477V166.584H758.531V162.75H774.349V162.395C774.282 161.176 774.028 159.991 773.587 158.84C773.164 157.689 772.487 156.741 771.556 155.996C770.625 155.251 769.356 154.879 767.748 154.879C766.681 154.879 765.699 155.107 764.802 155.564C763.905 156.005 763.135 156.665 762.492 157.545C761.849 158.425 761.349 159.5 760.994 160.77C760.638 162.039 760.461 163.503 760.461 165.162V166.229C760.461 167.532 760.638 168.759 760.994 169.91C761.366 171.044 761.899 172.043 762.593 172.906C763.304 173.77 764.159 174.447 765.158 174.938C766.173 175.428 767.324 175.674 768.611 175.674C770.27 175.674 771.675 175.335 772.826 174.658C773.977 173.981 774.984 173.076 775.847 171.941L778.691 174.201C778.099 175.098 777.345 175.953 776.431 176.766C775.517 177.578 774.392 178.238 773.054 178.746C771.734 179.254 770.168 179.508 768.357 179.508ZM801.25 174.303V160.16C801.25 159.077 801.03 158.137 800.59 157.342C800.167 156.529 799.524 155.903 798.66 155.463C797.797 155.023 796.731 154.803 795.461 154.803C794.276 154.803 793.235 155.006 792.338 155.412C791.458 155.818 790.764 156.352 790.256 157.012C789.765 157.672 789.52 158.383 789.52 159.145H784.822C784.822 158.163 785.076 157.189 785.584 156.225C786.092 155.26 786.82 154.388 787.768 153.609C788.733 152.814 789.884 152.188 791.221 151.73C792.575 151.257 794.081 151.02 795.74 151.02C797.738 151.02 799.498 151.358 801.022 152.035C802.562 152.712 803.764 153.736 804.627 155.107C805.507 156.462 805.947 158.163 805.947 160.211V173.008C805.947 173.922 806.024 174.895 806.176 175.928C806.345 176.96 806.591 177.849 806.912 178.594V179H802.012C801.775 178.458 801.589 177.739 801.453 176.842C801.318 175.928 801.25 175.081 801.25 174.303ZM802.063 162.344L802.113 165.645H797.365C796.028 165.645 794.835 165.755 793.785 165.975C792.736 166.178 791.856 166.491 791.145 166.914C790.434 167.337 789.892 167.87 789.52 168.514C789.147 169.14 788.961 169.876 788.961 170.723C788.961 171.586 789.156 172.373 789.545 173.084C789.934 173.795 790.518 174.362 791.297 174.785C792.093 175.191 793.066 175.395 794.217 175.395C795.656 175.395 796.925 175.09 798.025 174.48C799.126 173.871 799.997 173.126 800.641 172.246C801.301 171.366 801.656 170.511 801.707 169.682L803.713 171.941C803.594 172.652 803.273 173.439 802.748 174.303C802.223 175.166 801.521 175.995 800.641 176.791C799.777 177.57 798.745 178.221 797.543 178.746C796.358 179.254 795.021 179.508 793.531 179.508C791.669 179.508 790.036 179.144 788.631 178.416C787.243 177.688 786.16 176.715 785.381 175.496C784.619 174.26 784.238 172.881 784.238 171.357C784.238 169.885 784.526 168.59 785.102 167.473C785.677 166.339 786.507 165.399 787.59 164.654C788.673 163.893 789.977 163.317 791.5 162.928C793.024 162.538 794.725 162.344 796.604 162.344H802.063ZM818.528 156.986V179H813.805V151.527H818.274L818.528 156.986ZM817.563 164.223L815.379 164.146C815.396 162.268 815.642 160.533 816.116 158.941C816.59 157.333 817.292 155.937 818.223 154.752C819.154 153.567 820.314 152.653 821.702 152.01C823.09 151.35 824.698 151.02 826.526 151.02C827.812 151.02 828.997 151.206 830.081 151.578C831.164 151.934 832.103 152.501 832.899 153.279C833.695 154.058 834.312 155.057 834.753 156.275C835.193 157.494 835.413 158.967 835.413 160.693V179H830.715V160.922C830.715 159.483 830.47 158.332 829.979 157.469C829.505 156.605 828.828 155.979 827.948 155.59C827.068 155.184 826.035 154.98 824.85 154.98C823.462 154.98 822.303 155.226 821.372 155.717C820.441 156.208 819.696 156.885 819.137 157.748C818.579 158.611 818.172 159.602 817.919 160.719C817.682 161.819 817.563 162.987 817.563 164.223ZM835.362 161.633L832.213 162.598C832.23 161.091 832.476 159.644 832.95 158.256C833.441 156.868 834.143 155.632 835.057 154.549C835.988 153.465 837.131 152.611 838.485 151.984C839.839 151.341 841.388 151.02 843.131 151.02C844.604 151.02 845.907 151.214 847.042 151.604C848.193 151.993 849.157 152.594 849.936 153.406C850.732 154.202 851.333 155.226 851.739 156.479C852.145 157.731 852.348 159.221 852.348 160.947V179H847.626V160.896C847.626 159.356 847.38 158.163 846.889 157.316C846.415 156.453 845.738 155.852 844.858 155.514C843.995 155.158 842.962 154.98 841.76 154.98C840.728 154.98 839.814 155.158 839.018 155.514C838.223 155.869 837.554 156.36 837.012 156.986C836.471 157.596 836.056 158.298 835.768 159.094C835.497 159.889 835.362 160.736 835.362 161.633ZM902.544 142.031V179H897.619L879.007 150.486V179H874.107V142.031H879.007L897.695 170.621V142.031H902.544ZM927.236 174.303V160.16C927.236 159.077 927.016 158.137 926.576 157.342C926.153 156.529 925.51 155.903 924.646 155.463C923.783 155.023 922.717 154.803 921.447 154.803C920.262 154.803 919.221 155.006 918.324 155.412C917.444 155.818 916.75 156.352 916.242 157.012C915.751 157.672 915.506 158.383 915.506 159.145H910.809C910.809 158.163 911.062 157.189 911.57 156.225C912.078 155.26 912.806 154.388 913.754 153.609C914.719 152.814 915.87 152.188 917.207 151.73C918.561 151.257 920.068 151.02 921.727 151.02C923.724 151.02 925.484 151.358 927.008 152.035C928.548 152.712 929.75 153.736 930.613 155.107C931.493 156.462 931.934 158.163 931.934 160.211V173.008C931.934 173.922 932.01 174.895 932.162 175.928C932.331 176.96 932.577 177.849 932.898 178.594V179H927.998C927.761 178.458 927.575 177.739 927.439 176.842C927.304 175.928 927.236 175.081 927.236 174.303ZM928.049 162.344L928.1 165.645H923.352C922.014 165.645 920.821 165.755 919.771 165.975C918.722 166.178 917.842 166.491 917.131 166.914C916.42 167.337 915.878 167.87 915.506 168.514C915.133 169.14 914.947 169.876 914.947 170.723C914.947 171.586 915.142 172.373 915.531 173.084C915.921 173.795 916.505 174.362 917.283 174.785C918.079 175.191 919.052 175.395 920.203 175.395C921.642 175.395 922.911 175.09 924.012 174.48C925.112 173.871 925.984 173.126 926.627 172.246C927.287 171.366 927.643 170.511 927.693 169.682L929.699 171.941C929.581 172.652 929.259 173.439 928.734 174.303C928.21 175.166 927.507 175.995 926.627 176.791C925.764 177.57 924.731 178.221 923.529 178.746C922.344 179.254 921.007 179.508 919.518 179.508C917.656 179.508 916.022 179.144 914.617 178.416C913.229 177.688 912.146 176.715 911.367 175.496C910.605 174.26 910.225 172.881 910.225 171.357C910.225 169.885 910.512 168.59 911.088 167.473C911.663 166.339 912.493 165.399 913.576 164.654C914.66 163.893 915.963 163.317 917.486 162.928C919.01 162.538 920.711 162.344 922.59 162.344H928.049ZM944.514 156.986V179H939.792V151.527H944.26L944.514 156.986ZM943.549 164.223L941.366 164.146C941.383 162.268 941.628 160.533 942.102 158.941C942.576 157.333 943.278 155.937 944.209 154.752C945.14 153.567 946.3 152.653 947.688 152.01C949.076 151.35 950.684 151.02 952.512 151.02C953.799 151.02 954.984 151.206 956.067 151.578C957.15 151.934 958.09 152.501 958.885 153.279C959.681 154.058 960.299 155.057 960.739 156.275C961.179 157.494 961.399 158.967 961.399 160.693V179H956.702V160.922C956.702 159.483 956.456 158.332 955.965 157.469C955.491 156.605 954.814 155.979 953.934 155.59C953.054 155.184 952.021 154.98 950.836 154.98C949.448 154.98 948.289 155.226 947.358 155.717C946.427 156.208 945.682 156.885 945.124 157.748C944.565 158.611 944.159 159.602 943.905 160.719C943.668 161.819 943.549 162.987 943.549 164.223ZM961.348 161.633L958.2 162.598C958.217 161.091 958.462 159.644 958.936 158.256C959.427 156.868 960.129 155.632 961.043 154.549C961.974 153.465 963.117 152.611 964.471 151.984C965.825 151.341 967.374 151.02 969.118 151.02C970.59 151.02 971.894 151.214 973.028 151.604C974.179 151.993 975.144 152.594 975.922 153.406C976.718 154.202 977.319 155.226 977.725 156.479C978.131 157.731 978.334 159.221 978.334 160.947V179H973.612V160.896C973.612 159.356 973.366 158.163 972.875 157.316C972.402 156.453 971.724 155.852 970.844 155.514C969.981 155.158 968.948 154.98 967.747 154.98C966.714 154.98 965.8 155.158 965.004 155.514C964.209 155.869 963.54 156.36 962.999 156.986C962.457 157.596 962.042 158.298 961.754 159.094C961.484 159.889 961.348 160.736 961.348 161.633ZM997.364 179.508C995.451 179.508 993.716 179.186 992.159 178.543C990.619 177.883 989.29 176.96 988.173 175.775C987.073 174.59 986.226 173.186 985.634 171.561C985.041 169.936 984.745 168.158 984.745 166.229V165.162C984.745 162.928 985.075 160.939 985.735 159.195C986.395 157.435 987.293 155.945 988.427 154.727C989.561 153.508 990.847 152.585 992.286 151.959C993.725 151.333 995.214 151.02 996.755 151.02C998.718 151.02 1000.41 151.358 1001.83 152.035C1003.27 152.712 1004.45 153.66 1005.36 154.879C1006.28 156.081 1006.95 157.503 1007.39 159.145C1007.83 160.77 1008.05 162.547 1008.05 164.477V166.584H987.538V162.75H1003.36V162.395C1003.29 161.176 1003.03 159.991 1002.59 158.84C1002.17 157.689 1001.49 156.741 1000.56 155.996C999.632 155.251 998.363 154.879 996.755 154.879C995.688 154.879 994.707 155.107 993.81 155.564C992.912 156.005 992.142 156.665 991.499 157.545C990.856 158.425 990.356 159.5 990.001 160.77C989.645 162.039 989.468 163.503 989.468 165.162V166.229C989.468 167.532 989.645 168.759 990.001 169.91C990.373 171.044 990.907 172.043 991.601 172.906C992.311 173.77 993.166 174.447 994.165 174.938C995.181 175.428 996.332 175.674 997.618 175.674C999.277 175.674 1000.68 175.335 1001.83 174.658C1002.98 173.981 1003.99 173.076 1004.85 171.941L1007.7 174.201C1007.11 175.098 1006.35 175.953 1005.44 176.766C1004.52 177.578 1003.4 178.238 1002.06 178.746C1000.74 179.254 999.175 179.508 997.364 179.508Z" fill="#1F1541"/>
</g>
<path d="M1680 254H0V256H1680V254Z" fill="#1F1541" mask="url(#path-1-inside-1_51_1493)"/>
<defs>
<clipPath id="clip0_51_1493">
<path d="M0 0H1680V255H0V0Z" fill="white"/>
</clipPath>
</defs>
</svg>
