<svg width="22" height="22" viewBox="0 0 22 22" fill="none" xmlns="http://www.w3.org/2000/svg">
<path fill-rule="evenodd" clip-rule="evenodd" d="M4.77475 2.87373C4.77475 4.11882 3.82671 5.12645 2.34415 5.12645C0.919355 5.12645 -0.0286772 4.11882 0.000662254 2.87373C-0.0286772 1.56813 0.919332 0.589844 2.37255 0.589844C3.82669 0.589844 4.74633 1.56813 4.77475 2.87373ZM0.119858 21.4089V6.90606H4.62712V21.408H0.119858V21.4089Z" fill="black"/>
<path fill-rule="evenodd" clip-rule="evenodd" d="M8.2398 11.534C8.2398 9.72501 8.1802 8.18286 8.12061 6.90751H12.0356L12.2437 8.89435H12.3326C12.9259 7.97474 14.4084 6.58203 16.8106 6.58203C19.7757 6.58203 22 8.53952 22 12.8084V21.4103H17.4927V13.3732C17.4927 11.5037 16.8408 10.2293 15.2098 10.2293C13.9637 10.2293 13.2229 11.0893 12.9268 11.919C12.8076 12.2161 12.7489 12.6305 12.7489 13.0468V21.4103H8.24162V11.534H8.2398Z" fill="black"/>
</svg>
