<svg width="27" height="18" viewBox="0 0 27 18" fill="none" xmlns="http://www.w3.org/2000/svg">
<path fill-rule="evenodd" clip-rule="evenodd" d="M25.176 1.37807C25.5751 1.77717 25.8627 2.27386 26.0101 2.81868C26.859 6.23572 26.6628 11.6324 26.0266 15.1813C25.8791 15.7261 25.5916 16.2228 25.1925 16.6219C24.7934 17.021 24.2967 17.3086 23.7518 17.456C21.7573 18 13.7299 18 13.7299 18C13.7299 18 5.7024 18 3.70789 17.456C3.16307 17.3086 2.66638 17.021 2.26728 16.6219C1.86818 16.2228 1.5806 15.7261 1.43317 15.1813C0.579322 11.7791 0.813388 6.37912 1.41669 2.83517C1.56411 2.29035 1.85169 1.79365 2.2508 1.39455C2.6499 0.99545 3.14659 0.707864 3.69141 0.560444C5.68591 0.0164795 13.7134 0 13.7134 0C13.7134 0 21.7409 0 23.7354 0.543954C24.2802 0.691384 24.7769 0.97897 25.176 1.37807ZM17.8178 8.99999L11.1584 12.8571V5.14285L17.8178 8.99999Z" fill="black"/>
</svg>
