<svg width="343" height="363" viewBox="0 0 343 363" fill="none" xmlns="http://www.w3.org/2000/svg">
<mask id="path-1-outside-1_51_1448" maskUnits="userSpaceOnUse" x="-1" y="-1" width="345" height="365" fill="black">
<rect fill="white" x="-1" y="-1" width="345" height="365"/>
<path d="M72.0342 44.3164V77.709C70.793 79.3506 68.8511 81.1523 66.2085 83.1143C63.606 85.0361 60.1426 86.6978 55.8184 88.0991C51.4941 89.5005 46.1089 90.2012 39.6626 90.2012C34.1772 90.2012 29.1523 89.2803 24.5879 87.4385C20.0234 85.5566 16.0796 82.814 12.7563 79.2104C9.47314 75.6069 6.93066 71.2227 5.12891 66.0576C3.32715 60.8525 2.42627 54.9268 2.42627 48.2803V42.2144C2.42627 35.6079 3.24707 29.7222 4.88867 24.5571C6.57031 19.3521 8.97266 14.9478 12.0957 11.3442C15.2188 7.74072 18.9824 5.01807 23.3867 3.17627C27.8311 1.29443 32.856 0.353516 38.4614 0.353516C45.6284 0.353516 51.5542 1.55469 56.2388 3.95703C60.9634 6.31934 64.6069 9.60254 67.1694 13.8066C69.7319 18.0107 71.3535 22.8154 72.0342 28.2207H57.2598C56.7793 25.1777 55.8384 22.4551 54.437 20.0527C53.0757 17.6504 51.1138 15.7686 48.5513 14.4072C46.0288 13.0059 42.7456 12.3052 38.7017 12.3052C35.2183 12.3052 32.1553 12.9658 29.5127 14.2871C26.8701 15.6084 24.668 17.5503 22.9062 20.1128C21.1846 22.6753 19.8833 25.7983 19.0024 29.4819C18.1216 33.1655 17.6812 37.3696 17.6812 42.0942V48.2803C17.6812 53.085 18.1816 57.3491 19.1826 61.0728C20.2236 64.7964 21.7051 67.9395 23.627 70.502C25.5889 73.0645 27.9712 75.0063 30.7739 76.3276C33.5767 77.6089 36.7397 78.2495 40.2632 78.2495C43.7065 78.2495 46.5293 77.9692 48.7314 77.4087C50.9336 76.8081 52.6753 76.1074 53.9565 75.3066C55.2778 74.4658 56.2988 73.665 57.0195 72.9043V55.5474H38.8218V44.3164H72.0342ZM117.167 90.2012C112.362 90.2012 108.018 89.4204 104.134 87.8589C100.291 86.2573 97.0073 84.0352 94.2847 81.1924C91.6021 78.3496 89.5401 75.0063 88.0987 71.1626C86.6572 67.3188 85.9365 63.1748 85.9365 58.7305V56.3281C85.9365 51.2432 86.6773 46.6387 88.1587 42.5146C89.6402 38.3906 91.7022 34.8672 94.3447 31.9443C96.9873 28.9814 100.11 26.7192 103.714 25.1577C107.317 23.5962 111.221 22.8154 115.425 22.8154C120.07 22.8154 124.134 23.5962 127.617 25.1577C131.101 26.7192 133.983 28.9214 136.266 31.7642C138.588 34.5669 140.31 37.9102 141.431 41.7939C142.592 45.6777 143.172 49.9619 143.172 54.6465V60.8325H92.9634V50.4424H128.878V49.3013C128.798 46.6987 128.278 44.2563 127.317 41.9741C126.396 39.6919 124.975 37.8501 123.053 36.4487C121.131 35.0474 118.568 34.3467 115.365 34.3467C112.963 34.3467 110.821 34.8672 108.939 35.9082C107.097 36.9092 105.556 38.3706 104.314 40.2925C103.073 42.2144 102.112 44.5366 101.432 47.2593C100.791 49.9419 100.471 52.9648 100.471 56.3281V58.7305C100.471 61.5732 100.851 64.2158 101.612 66.6582C102.413 69.0605 103.574 71.1626 105.095 72.9644C106.617 74.7661 108.459 76.1875 110.621 77.2285C112.783 78.2295 115.245 78.73 118.008 78.73C121.491 78.73 124.594 78.0293 127.317 76.6279C130.04 75.2266 132.402 73.2446 134.404 70.6821L142.031 78.0693C140.63 80.1113 138.808 82.0732 136.566 83.9551C134.324 85.7969 131.581 87.2983 128.338 88.4595C125.135 89.6206 121.411 90.2012 117.167 90.2012ZM185.482 24.0166V34.5869H148.847V24.0166H185.482ZM159.417 8.10107H173.891V71.0425C173.891 73.0444 174.171 74.5859 174.732 75.667C175.333 76.708 176.153 77.4087 177.194 77.769C178.235 78.1294 179.457 78.3096 180.858 78.3096C181.859 78.3096 182.82 78.2495 183.741 78.1294C184.662 78.0093 185.402 77.8892 185.963 77.769L186.023 88.8198C184.822 89.1802 183.42 89.5005 181.819 89.7808C180.257 90.061 178.456 90.2012 176.414 90.2012C173.09 90.2012 170.148 89.6206 167.585 88.4595C165.023 87.2583 163.021 85.3164 161.579 82.6338C160.138 79.9512 159.417 76.3877 159.417 71.9434V8.10107ZM0.68457 193.229V191.848C0.68457 187.163 1.36523 182.819 2.72656 178.815C4.08789 174.771 6.0498 171.268 8.6123 168.305C11.2148 165.302 14.3779 162.979 18.1016 161.338C21.8652 159.656 26.1094 158.815 30.834 158.815C35.5986 158.815 39.8428 159.656 43.5664 161.338C47.3301 162.979 50.5132 165.302 53.1157 168.305C55.7183 171.268 57.7002 174.771 59.0615 178.815C60.4229 182.819 61.1035 187.163 61.1035 191.848V193.229C61.1035 197.914 60.4229 202.258 59.0615 206.262C57.7002 210.266 55.7183 213.769 53.1157 216.772C50.5132 219.735 47.3501 222.057 43.6265 223.739C39.9028 225.38 35.6787 226.201 30.9541 226.201C26.1895 226.201 21.9253 225.38 18.1616 223.739C14.438 222.057 11.2749 219.735 8.67236 216.772C6.06982 213.769 4.08789 210.266 2.72656 206.262C1.36523 202.258 0.68457 197.914 0.68457 193.229ZM15.1587 191.848V193.229C15.1587 196.152 15.459 198.915 16.0596 201.517C16.6602 204.12 17.6011 206.402 18.8823 208.364C20.1636 210.326 21.8052 211.867 23.8071 212.988C25.8091 214.109 28.1914 214.67 30.9541 214.67C33.6367 214.67 35.959 214.109 37.9209 212.988C39.9229 211.867 41.5645 210.326 42.8457 208.364C44.127 206.402 45.0679 204.12 45.6685 201.517C46.3091 198.915 46.6294 196.152 46.6294 193.229V191.848C46.6294 188.965 46.3091 186.242 45.6685 183.68C45.0679 181.077 44.1069 178.775 42.7856 176.773C41.5044 174.771 39.8628 173.209 37.8608 172.088C35.8989 170.927 33.5566 170.347 30.834 170.347C28.1113 170.347 25.749 170.927 23.7471 172.088C21.7852 173.209 20.1636 174.771 18.8823 176.773C17.6011 178.775 16.6602 181.077 16.0596 183.68C15.459 186.242 15.1587 188.965 15.1587 191.848ZM88.8194 173.89V225H74.3452V160.017H87.9785L88.8194 173.89ZM86.2368 190.106L81.5523 190.046C81.5923 185.441 82.2329 181.217 83.4741 177.374C84.7554 173.53 86.5171 170.227 88.7593 167.464C91.0415 164.701 93.7642 162.579 96.9273 161.098C100.09 159.576 103.614 158.815 107.498 158.815C110.621 158.815 113.443 159.256 115.966 160.137C118.528 160.978 120.71 162.359 122.512 164.281C124.354 166.203 125.755 168.705 126.716 171.788C127.677 174.831 128.158 178.575 128.158 183.019V225H113.624V182.959C113.624 179.836 113.163 177.374 112.242 175.572C111.361 173.73 110.06 172.429 108.338 171.668C106.657 170.867 104.555 170.467 102.032 170.467C99.5498 170.467 97.3277 170.987 95.3657 172.028C93.4038 173.069 91.7422 174.491 90.3809 176.292C89.0596 178.094 88.0386 180.176 87.3179 182.539C86.5972 184.901 86.2368 187.423 86.2368 190.106ZM205.811 160.017V170.587H169.175V160.017H205.811ZM179.746 144.101H194.22V207.042C194.22 209.044 194.5 210.586 195.061 211.667C195.661 212.708 196.482 213.409 197.523 213.769C198.564 214.129 199.785 214.31 201.187 214.31C202.188 214.31 203.148 214.25 204.069 214.129C204.99 214.009 205.731 213.889 206.292 213.769L206.352 224.82C205.15 225.18 203.749 225.5 202.148 225.781C200.586 226.061 198.784 226.201 196.742 226.201C193.419 226.201 190.476 225.621 187.914 224.459C185.351 223.258 183.349 221.316 181.908 218.634C180.466 215.951 179.746 212.388 179.746 207.943V144.101ZM232.506 132.75V225H218.092V132.75H232.506ZM229.983 190.106L225.299 190.046C225.339 185.562 225.96 181.417 227.161 177.614C228.402 173.81 230.124 170.507 232.326 167.704C234.568 164.861 237.251 162.679 240.374 161.158C243.497 159.596 246.96 158.815 250.764 158.815C253.967 158.815 256.85 159.256 259.412 160.137C262.015 161.018 264.257 162.439 266.139 164.401C268.021 166.323 269.442 168.845 270.403 171.968C271.404 175.051 271.904 178.815 271.904 183.259V225H257.37V183.139C257.37 180.016 256.91 177.534 255.989 175.692C255.108 173.85 253.807 172.529 252.085 171.728C250.363 170.887 248.261 170.467 245.779 170.467C243.176 170.467 240.874 170.987 238.872 172.028C236.91 173.069 235.269 174.491 233.947 176.292C232.626 178.094 231.625 180.176 230.944 182.539C230.304 184.901 229.983 187.423 229.983 190.106ZM316.437 226.201C311.632 226.201 307.288 225.42 303.404 223.859C299.56 222.257 296.277 220.035 293.554 217.192C290.872 214.35 288.81 211.006 287.368 207.163C285.927 203.319 285.206 199.175 285.206 194.73V192.328C285.206 187.243 285.947 182.639 287.428 178.515C288.91 174.391 290.972 170.867 293.614 167.944C296.257 164.981 299.38 162.719 302.983 161.158C306.587 159.596 310.491 158.815 314.695 158.815C319.339 158.815 323.403 159.596 326.887 161.158C330.37 162.719 333.253 164.921 335.535 167.764C337.858 170.567 339.579 173.91 340.7 177.794C341.861 181.678 342.442 185.962 342.442 190.646V196.833H292.233V186.442H328.148V185.301C328.068 182.699 327.547 180.256 326.587 177.974C325.666 175.692 324.244 173.85 322.322 172.449C320.4 171.047 317.838 170.347 314.635 170.347C312.233 170.347 310.09 170.867 308.209 171.908C306.367 172.909 304.825 174.371 303.584 176.292C302.343 178.214 301.382 180.537 300.701 183.259C300.061 185.942 299.74 188.965 299.74 192.328V194.73C299.74 197.573 300.121 200.216 300.881 202.658C301.682 205.061 302.843 207.163 304.365 208.964C305.886 210.766 307.728 212.188 309.89 213.229C312.052 214.229 314.515 214.73 317.277 214.73C320.761 214.73 323.864 214.029 326.587 212.628C329.309 211.227 331.671 209.245 333.673 206.682L341.301 214.069C339.9 216.111 338.078 218.073 335.836 219.955C333.593 221.797 330.851 223.298 327.608 224.459C324.404 225.621 320.681 226.201 316.437 226.201ZM20.9844 273.555V361H5.90967V273.555H20.9844ZM53.8653 309.89V361H39.3911V296.017H53.0244L53.8653 309.89ZM51.2827 326.106L46.5982 326.046C46.6382 321.441 47.2788 317.217 48.52 313.374C49.8013 309.53 51.563 306.227 53.8052 303.464C56.0874 300.701 58.8101 298.579 61.9732 297.098C65.1362 295.576 68.6597 294.815 72.5435 294.815C75.6665 294.815 78.4893 295.256 81.0117 296.137C83.5742 296.978 85.7564 298.359 87.5581 300.281C89.3999 302.203 90.8013 304.705 91.7622 307.788C92.7232 310.831 93.2036 314.575 93.2036 319.019V361H78.6695V318.959C78.6695 315.836 78.209 313.374 77.2881 311.572C76.4072 309.73 75.106 308.429 73.3843 307.668C71.7027 306.867 69.6006 306.467 67.0781 306.467C64.5957 306.467 62.3736 306.987 60.4116 308.028C58.4497 309.069 56.7881 310.491 55.4268 312.292C54.1055 314.094 53.0845 316.176 52.3638 318.539C51.6431 320.901 51.2827 323.423 51.2827 326.106ZM145.664 343.403C145.664 341.961 145.303 340.66 144.583 339.499C143.862 338.298 142.481 337.217 140.439 336.256C138.437 335.295 135.474 334.414 131.55 333.613C128.106 332.853 124.943 331.952 122.061 330.911C119.218 329.83 116.775 328.528 114.733 327.007C112.691 325.485 111.11 323.684 109.989 321.602C108.868 319.52 108.307 317.117 108.307 314.395C108.307 311.752 108.888 309.25 110.049 306.887C111.21 304.525 112.872 302.443 115.034 300.641C117.196 298.839 119.818 297.418 122.901 296.377C126.024 295.336 129.508 294.815 133.352 294.815C138.797 294.815 143.461 295.736 147.345 297.578C151.269 299.38 154.272 301.842 156.354 304.965C158.436 308.048 159.477 311.532 159.477 315.416H145.003C145.003 313.694 144.563 312.092 143.682 310.611C142.841 309.089 141.56 307.868 139.838 306.947C138.116 305.986 135.954 305.506 133.352 305.506C130.869 305.506 128.807 305.906 127.166 306.707C125.564 307.468 124.363 308.469 123.562 309.71C122.801 310.951 122.421 312.312 122.421 313.794C122.421 314.875 122.621 315.856 123.022 316.737C123.462 317.578 124.183 318.358 125.184 319.079C126.185 319.76 127.546 320.4 129.268 321.001C131.029 321.602 133.231 322.182 135.874 322.743C140.839 323.784 145.103 325.125 148.667 326.767C152.27 328.368 155.033 330.45 156.955 333.013C158.877 335.535 159.837 338.738 159.837 342.622C159.837 345.505 159.217 348.147 157.976 350.55C156.774 352.912 155.013 354.974 152.69 356.736C150.368 358.458 147.585 359.799 144.342 360.76C141.139 361.721 137.536 362.201 133.532 362.201C127.646 362.201 122.661 361.16 118.577 359.078C114.493 356.956 111.39 354.253 109.268 350.97C107.186 347.647 106.145 344.204 106.145 340.64H120.139C120.299 343.323 121.04 345.465 122.361 347.066C123.722 348.628 125.404 349.769 127.406 350.49C129.448 351.17 131.55 351.511 133.712 351.511C136.314 351.511 138.497 351.17 140.258 350.49C142.02 349.769 143.361 348.808 144.282 347.607C145.203 346.366 145.664 344.964 145.664 343.403ZM189.235 296.017V361H174.701V296.017H189.235ZM173.74 278.96C173.74 276.758 174.461 274.936 175.902 273.495C177.383 272.013 179.425 271.272 182.028 271.272C184.59 271.272 186.612 272.013 188.094 273.495C189.575 274.936 190.316 276.758 190.316 278.96C190.316 281.122 189.575 282.924 188.094 284.365C186.612 285.807 184.59 286.527 182.028 286.527C179.425 286.527 177.383 285.807 175.902 284.365C174.461 282.924 173.74 281.122 173.74 278.96ZM245.959 347.547V268.75H260.493V361H247.34L245.959 347.547ZM203.678 329.229V327.968C203.678 323.043 204.258 318.559 205.42 314.515C206.581 310.431 208.262 306.927 210.464 304.004C212.667 301.042 215.349 298.779 218.512 297.218C221.675 295.616 225.239 294.815 229.203 294.815C233.127 294.815 236.57 295.576 239.533 297.098C242.496 298.619 245.018 300.801 247.1 303.644C249.182 306.447 250.844 309.81 252.085 313.734C253.326 317.618 254.207 321.942 254.728 326.707V330.73C254.207 335.375 253.326 339.619 252.085 343.463C250.844 347.307 249.182 350.63 247.1 353.433C245.018 356.235 242.476 358.397 239.473 359.919C236.51 361.44 233.046 362.201 229.083 362.201C225.159 362.201 221.615 361.38 218.452 359.739C215.329 358.097 212.667 355.795 210.464 352.832C208.262 349.869 206.581 346.386 205.42 342.382C204.258 338.338 203.678 333.954 203.678 329.229ZM218.152 327.968V329.229C218.152 332.192 218.412 334.955 218.933 337.517C219.493 340.08 220.354 342.342 221.515 344.304C222.676 346.226 224.178 347.747 226.02 348.868C227.901 349.949 230.144 350.49 232.746 350.49C236.029 350.49 238.732 349.769 240.854 348.328C242.976 346.886 244.638 344.944 245.839 342.502C247.08 340.02 247.921 337.257 248.361 334.214V323.343C248.121 320.981 247.621 318.779 246.86 316.737C246.139 314.695 245.158 312.913 243.917 311.392C242.676 309.83 241.134 308.629 239.293 307.788C237.491 306.907 235.349 306.467 232.866 306.467C230.224 306.467 227.982 307.027 226.14 308.148C224.298 309.27 222.776 310.811 221.575 312.773C220.414 314.735 219.553 317.017 218.993 319.62C218.432 322.222 218.152 325.005 218.152 327.968ZM305.506 362.201C300.701 362.201 296.357 361.42 292.473 359.859C288.629 358.257 285.346 356.035 282.624 353.192C279.941 350.35 277.879 347.006 276.438 343.163C274.996 339.319 274.275 335.175 274.275 330.73V328.328C274.275 323.243 275.016 318.639 276.498 314.515C277.979 310.391 280.041 306.867 282.684 303.944C285.326 300.981 288.449 298.719 292.053 297.158C295.656 295.596 299.56 294.815 303.764 294.815C308.409 294.815 312.473 295.596 315.956 297.158C319.44 298.719 322.322 300.921 324.605 303.764C326.927 306.567 328.649 309.91 329.77 313.794C330.931 317.678 331.511 321.962 331.511 326.646V332.833H281.302V322.442H317.217V321.301C317.137 318.699 316.617 316.256 315.656 313.974C314.735 311.692 313.314 309.85 311.392 308.449C309.47 307.047 306.907 306.347 303.704 306.347C301.302 306.347 299.16 306.867 297.278 307.908C295.436 308.909 293.895 310.371 292.653 312.292C291.412 314.214 290.451 316.537 289.771 319.259C289.13 321.942 288.81 324.965 288.81 328.328V330.73C288.81 333.573 289.19 336.216 289.951 338.658C290.752 341.061 291.913 343.163 293.434 344.964C294.956 346.766 296.797 348.188 298.96 349.229C301.122 350.229 303.584 350.73 306.347 350.73C309.83 350.73 312.933 350.029 315.656 348.628C318.379 347.227 320.741 345.245 322.743 342.682L330.37 350.069C328.969 352.111 327.147 354.073 324.905 355.955C322.663 357.797 319.92 359.298 316.677 360.459C313.474 361.621 309.75 362.201 305.506 362.201Z"/>
</mask>
<path d="M72.0342 44.3164H73.0342V43.3164H72.0342V44.3164ZM72.0342 77.709L72.8318 78.3121L73.0342 78.0445V77.709H72.0342ZM66.2085 83.1143L66.8025 83.9187L66.8046 83.9172L66.2085 83.1143ZM24.5879 87.4385L24.2067 88.363L24.2137 88.3658L24.5879 87.4385ZM12.7563 79.2104L12.0171 79.8839L12.0212 79.8884L12.7563 79.2104ZM5.12891 66.0576L4.18392 66.3847L4.18471 66.387L5.12891 66.0576ZM4.88867 24.5571L3.93709 24.2497L3.93565 24.2542L4.88867 24.5571ZM23.3867 3.17627L23.7725 4.09886L23.7766 4.09712L23.3867 3.17627ZM56.2388 3.95703L55.7824 4.8469L55.7916 4.85146L56.2388 3.95703ZM72.0342 28.2207V29.2207H73.168L73.0263 28.0958L72.0342 28.2207ZM57.2598 28.2207L56.272 28.3767L56.4053 29.2207H57.2598V28.2207ZM54.437 20.0527L53.5669 20.5458L53.5732 20.5566L54.437 20.0527ZM48.5513 14.4072L48.0656 15.2814L48.0738 15.2859L48.0821 15.2903L48.5513 14.4072ZM22.9062 20.1128L22.0822 19.5462L22.0762 19.5551L22.9062 20.1128ZM19.0024 29.4819L18.0299 29.2494L19.0024 29.4819ZM19.1826 61.0728L18.2169 61.3324L18.2195 61.342L19.1826 61.0728ZM23.627 70.502L22.8269 71.102L22.8329 71.1099L23.627 70.502ZM30.7739 76.3276L30.3475 77.2322L30.3582 77.2371L30.7739 76.3276ZM48.7314 77.4087L48.9781 78.3778L48.9864 78.3757L48.9946 78.3735L48.7314 77.4087ZM53.9565 75.3066L54.4866 76.1547L54.4934 76.1503L53.9565 75.3066ZM57.0195 72.9043L57.7455 73.592L58.0195 73.3028V72.9043H57.0195ZM57.0195 55.5474H58.0195V54.5474H57.0195V55.5474ZM38.8218 55.5474H37.8218V56.5474H38.8218V55.5474ZM38.8218 44.3164V43.3164H37.8218V44.3164H38.8218ZM71.0342 44.3164V77.709H73.0342V44.3164H71.0342ZM71.2365 77.1059C70.0764 78.6402 68.2185 80.3765 65.6124 82.3113L66.8046 83.9172C69.4837 81.9282 71.5095 80.0609 72.8318 78.3121L71.2365 77.1059ZM65.6145 82.3098C63.1259 84.1475 59.7699 85.7673 55.5101 87.1478L56.1266 89.0504C60.5152 87.6282 64.086 85.9247 66.8025 83.9187L65.6145 82.3098ZM55.5101 87.1478C51.3175 88.5065 46.0443 89.2012 39.6626 89.2012V91.2012C46.1735 91.2012 51.6708 90.4944 56.1266 89.0504L55.5101 87.1478ZM39.6626 89.2012C34.2908 89.2012 29.3947 88.2997 24.9621 86.5111L24.2137 88.3658C28.9099 90.2608 34.0637 91.2012 39.6626 91.2012V89.2012ZM24.969 86.514C20.5381 84.6872 16.7153 82.0283 13.4915 78.5325L12.0212 79.8884C15.4438 83.5997 19.5088 86.4261 24.2067 88.363L24.969 86.514ZM13.4955 78.537C10.3137 75.0446 7.83586 70.7815 6.07311 65.7282L4.18471 66.387C6.02547 71.6638 8.63263 76.1692 12.0172 79.8839L13.4955 78.537ZM6.07389 65.7305C4.31519 60.6498 3.42627 54.8377 3.42627 48.2803H1.42627C1.42627 55.0158 2.3391 61.0553 4.18392 66.3847L6.07389 65.7305ZM3.42627 48.2803V42.2144H1.42627V48.2803H3.42627ZM3.42627 42.2144C3.42627 35.689 4.23717 29.9084 5.84169 24.86L3.93565 24.2542C2.25697 29.5359 1.42627 35.5268 1.42627 42.2144H3.42627ZM5.84024 24.8646C7.48662 19.7686 9.82831 15.4873 12.8514 11.9992L11.34 10.6893C8.117 14.4082 5.654 18.9355 3.9371 24.2497L5.84024 24.8646ZM12.8514 11.9992C15.8733 8.51233 19.5103 5.88122 23.7725 4.09885L23.0009 2.25369C18.4545 4.15492 14.5642 6.96911 11.34 10.6893L12.8514 11.9992ZM23.7766 4.09712C28.0793 2.27526 32.9685 1.35352 38.4614 1.35352V-0.646484C32.7434 -0.646484 27.5828 0.313606 22.9968 2.25542L23.7766 4.09712ZM38.4614 1.35352C45.5242 1.35352 51.2807 2.53826 55.7825 4.84685L56.6951 3.06721C51.8277 0.571112 45.7326 -0.646484 38.4614 -0.646484V1.35352ZM55.7916 4.85146C60.3609 7.13615 63.858 10.2951 66.3156 14.3271L68.0233 13.2862C65.3559 8.90995 61.5658 5.50252 56.686 3.0626L55.7916 4.85146ZM66.3156 14.3271C68.7971 18.3983 70.3771 23.0655 71.042 28.3456L73.0263 28.0958C72.3299 22.5654 70.6668 17.6232 68.0233 13.2862L66.3156 14.3271ZM72.0342 27.2207H57.2598V29.2207H72.0342V27.2207ZM58.2475 28.0647C57.7498 24.9123 56.7711 22.0694 55.3008 19.5489L53.5732 20.5566C54.9056 22.8407 55.8088 25.4432 56.272 28.3767L58.2475 28.0647ZM55.307 19.5597C53.847 16.9832 51.742 14.9699 49.0204 13.5241L48.0821 15.2903C50.4856 16.5672 52.3043 18.3175 53.567 20.5457L55.307 19.5597ZM49.0369 13.5331C46.3181 12.0226 42.851 11.3052 38.7017 11.3052V13.3052C42.6402 13.3052 45.7395 13.9891 48.0656 15.2814L49.0369 13.5331ZM38.7017 11.3052C35.0907 11.3052 31.8697 11.9906 29.0655 13.3927L29.9599 15.1815C32.4408 13.9411 35.3459 13.3052 38.7017 13.3052V11.3052ZM29.0655 13.3927C26.2636 14.7936 23.9346 16.8519 22.0822 19.5463L23.7303 20.6793C25.4014 18.2487 27.4767 16.4231 29.9599 15.1815L29.0655 13.3927ZM22.0762 19.5551C20.2748 22.2362 18.9324 25.4752 18.0299 29.2494L19.975 29.7145C20.8342 26.1215 22.0943 23.1144 23.7363 20.6705L22.0762 19.5551ZM18.0299 29.2494C17.127 33.0252 16.6812 37.3097 16.6812 42.0942H18.6812C18.6812 37.4296 19.1162 33.3059 19.975 29.7145L18.0299 29.2494ZM16.6812 42.0942V48.2803H18.6812V42.0942H16.6812ZM16.6812 48.2803C16.6812 53.1521 17.1884 57.5063 18.2169 61.3324L20.1483 60.8132C19.1749 57.1919 18.6812 53.0178 18.6812 48.2803H16.6812ZM18.2195 61.342C19.2872 65.161 20.817 68.4221 22.827 71.102L24.427 69.902C22.5931 67.4568 21.1601 64.4318 20.1457 60.8035L18.2195 61.342ZM22.8329 71.1099C24.8878 73.7937 27.3942 75.8399 30.3475 77.2322L31.2003 75.4231C28.5481 74.1728 26.29 72.3352 24.421 69.894L22.8329 71.1099ZM30.3582 77.2371C33.3089 78.586 36.6168 79.2495 40.2632 79.2495V77.2495C36.8627 77.2495 33.8445 76.6318 31.1897 75.4182L30.3582 77.2371ZM40.2632 79.2495C43.7517 79.2495 46.6654 78.9665 48.9781 78.3778L48.4848 76.4396C46.3932 76.972 43.6614 77.2495 40.2632 77.2495V79.2495ZM48.9946 78.3735C51.248 77.7589 53.0918 77.0264 54.4865 76.1546L53.4265 74.4586C52.2588 75.1885 50.6192 75.8573 48.4683 76.4439L48.9946 78.3735ZM54.4934 76.1503C55.8534 75.2849 56.948 74.4338 57.7455 73.592L56.2936 72.2166C55.6496 72.8963 54.7023 73.6468 53.4197 74.463L54.4934 76.1503ZM58.0195 72.9043V55.5474H56.0195V72.9043H58.0195ZM57.0195 54.5474H38.8218V56.5474H57.0195V54.5474ZM39.8218 55.5474V44.3164H37.8218V55.5474H39.8218ZM38.8218 45.3164H72.0342V43.3164H38.8218V45.3164ZM104.134 87.8589L103.75 88.782L103.761 88.7867L104.134 87.8589ZM94.2847 81.1924L93.5574 81.8787L93.5625 81.8841L94.2847 81.1924ZM94.3447 31.9443L95.0865 32.615L95.091 32.61L94.3447 31.9443ZM136.266 31.7642L135.486 32.3902L135.491 32.3962L135.496 32.4022L136.266 31.7642ZM141.431 41.7939L140.47 42.0713L140.473 42.0804L141.431 41.7939ZM143.172 60.8325V61.8325H144.172V60.8325H143.172ZM92.9634 60.8325H91.9634V61.8325H92.9634V60.8325ZM92.9634 50.4424V49.4424H91.9634V50.4424H92.9634ZM128.878 50.4424V51.4424H129.878V50.4424H128.878ZM128.878 49.3013H129.878V49.2859L129.878 49.2705L128.878 49.3013ZM127.317 41.9741L126.39 42.3483L126.392 42.3553L126.395 42.3622L127.317 41.9741ZM108.939 35.9082L109.417 36.7869L109.423 36.7832L108.939 35.9082ZM101.432 47.2593L100.461 47.0167L100.459 47.027L101.432 47.2593ZM101.612 66.6582L100.657 66.9556L100.66 66.965L100.663 66.9744L101.612 66.6582ZM110.621 77.2285L110.187 78.1295L110.194 78.1328L110.201 78.136L110.621 77.2285ZM134.404 70.6821L135.1 69.9638L134.301 69.19L133.616 70.0665L134.404 70.6821ZM142.031 78.0693L142.856 78.6352L143.334 77.9387L142.727 77.351L142.031 78.0693ZM136.566 83.9551L137.201 84.7278L137.209 84.7211L136.566 83.9551ZM128.338 88.4595L128.001 87.518L127.997 87.5193L128.338 88.4595ZM117.167 89.2012C112.471 89.2012 108.256 88.4384 104.507 86.9311L103.761 88.7867C107.78 90.4024 112.253 91.2012 117.167 91.2012V89.2012ZM104.519 86.9358C100.795 85.3842 97.6287 83.2382 95.0069 80.5007L93.5625 81.8841C96.386 84.8321 99.7862 87.1305 103.75 88.782L104.519 86.9358ZM95.012 80.5061C92.4252 77.7648 90.4321 74.5371 89.035 70.8115L87.1623 71.5137C88.648 75.4756 90.7789 78.9344 93.5574 81.8787L95.012 80.5061ZM89.035 70.8115C87.639 67.089 86.9365 63.0648 86.9365 58.7305H84.9365C84.9365 63.2848 85.6755 67.5487 87.1623 71.5137L89.035 70.8115ZM86.9365 58.7305V56.3281H84.9365V58.7305H86.9365ZM86.9365 56.3281C86.9365 51.3403 87.663 46.8524 89.0998 42.8527L87.2176 42.1766C85.6915 46.4249 84.9365 51.1461 84.9365 56.3281H86.9365ZM89.0998 42.8527C90.5421 38.8377 92.5408 35.4308 95.0865 32.615L93.603 31.2737C90.8636 34.3036 88.7382 37.9435 87.2176 42.1766L89.0998 42.8527ZM95.091 32.61C97.6381 29.7541 100.643 27.5785 104.111 26.0753L103.316 24.2402C99.5781 25.86 96.3365 28.2088 93.5985 31.2787L95.091 32.61ZM104.111 26.0753C107.581 24.5719 111.348 23.8154 115.425 23.8154V21.8154C111.094 21.8154 107.054 22.6205 103.316 24.2402L104.111 26.0753ZM115.425 23.8154C119.959 23.8154 123.878 24.5775 127.208 26.0702L128.026 24.2452C124.389 22.6149 120.181 21.8154 115.425 21.8154V23.8154ZM127.208 26.0702C130.554 27.5701 133.307 29.6768 135.486 32.3902L137.045 31.1381C134.659 28.166 131.647 25.8684 128.026 24.2452L127.208 26.0702ZM135.496 32.4022C137.721 35.0879 139.383 38.3049 140.47 42.0713L142.391 41.5166C141.236 37.5154 139.455 34.0459 137.036 31.1261L135.496 32.4022ZM140.473 42.0804C141.602 45.8581 142.172 50.0442 142.172 54.6465H144.172C144.172 49.8797 143.582 45.4974 142.389 41.5075L140.473 42.0804ZM142.172 54.6465V60.8325H144.172V54.6465H142.172ZM143.172 59.8325H92.9634V61.8325H143.172V59.8325ZM93.9634 60.8325V50.4424H91.9634V60.8325H93.9634ZM92.9634 51.4424H128.878V49.4424H92.9634V51.4424ZM129.878 50.4424V49.3013H127.878V50.4424H129.878ZM129.878 49.2705C129.794 46.5515 129.25 43.9874 128.239 41.5861L126.395 42.3622C127.306 44.5253 127.802 46.846 127.879 49.332L129.878 49.2705ZM128.244 41.5999C127.256 39.1507 125.72 37.1562 123.642 35.6407L122.464 37.2567C124.229 38.544 125.536 40.2331 126.39 42.3483L128.244 41.5999ZM123.642 35.6407C121.498 34.0778 118.708 33.3467 115.365 33.3467V35.3467C118.429 35.3467 120.763 36.0169 122.464 37.2567L123.642 35.6407ZM115.365 33.3467C112.814 33.3467 110.502 33.9009 108.455 35.0332L109.423 36.7832C111.14 35.8334 113.112 35.3467 115.365 35.3467V33.3467ZM108.461 35.0296C106.459 36.1176 104.798 37.7006 103.474 39.75L105.155 40.835C106.313 39.0406 107.735 37.7007 109.417 36.7868L108.461 35.0296ZM103.474 39.75C102.162 41.7822 101.163 44.2109 100.462 47.0167L102.402 47.5018C103.062 44.8624 103.985 42.6465 105.155 40.835L103.474 39.75ZM100.459 47.027C99.7968 49.8002 99.4707 52.903 99.4707 56.3281H101.471C101.471 53.0267 101.785 50.0836 102.404 47.4916L100.459 47.027ZM99.4707 56.3281V58.7305H101.471V56.3281H99.4707ZM99.4707 58.7305C99.4707 61.663 99.8632 64.4069 100.657 66.9556L102.567 66.3608C101.839 64.0248 101.471 61.4835 101.471 58.7305H99.4707ZM100.663 66.9744C101.501 69.4882 102.722 71.7039 104.331 73.6095L105.859 72.3192C104.426 70.6213 103.324 68.6329 102.561 66.342L100.663 66.9744ZM104.331 73.6095C105.945 75.5208 107.9 77.0285 110.187 78.1295L111.054 76.3275C109.017 75.3465 107.288 74.0114 105.859 72.3192L104.331 73.6095ZM110.201 78.136C112.514 79.2069 115.123 79.73 118.008 79.73V77.73C115.367 77.73 113.052 77.2521 111.041 76.321L110.201 78.136ZM118.008 79.73C121.628 79.73 124.892 79.0008 127.775 77.5171L126.859 75.7388C124.297 77.0578 121.354 77.73 118.008 77.73V79.73ZM127.775 77.5171C130.634 76.0454 133.106 73.9671 135.192 71.2978L133.616 70.0665C131.697 72.5222 129.445 74.4077 126.859 75.7388L127.775 77.5171ZM133.708 71.4005L141.336 78.7877L142.727 77.351L135.1 69.9638L133.708 71.4005ZM141.207 77.5035C139.865 79.4588 138.108 81.3552 135.923 83.1891L137.209 84.7211C139.508 82.7913 141.395 80.7639 142.856 78.6352L141.207 77.5035ZM135.931 83.1824C133.793 84.939 131.156 86.3885 128.001 87.518L128.675 89.4009C132.007 88.2082 134.855 86.6548 137.201 84.7278L135.931 83.1824ZM127.997 87.5193C124.926 88.6325 121.322 89.2012 117.167 89.2012V91.2012C121.5 91.2012 125.343 90.6087 128.679 89.3996L127.997 87.5193ZM185.482 24.0166H186.482V23.0166H185.482V24.0166ZM185.482 34.5869V35.5869H186.482V34.5869H185.482ZM148.847 34.5869H147.847V35.5869H148.847V34.5869ZM148.847 24.0166V23.0166H147.847V24.0166H148.847ZM159.417 8.10107V7.10107H158.417V8.10107H159.417ZM173.891 8.10107H174.891V7.10107H173.891V8.10107ZM174.732 75.667L173.844 76.1273L173.855 76.1473L173.866 76.1667L174.732 75.667ZM185.963 77.769L186.963 77.7636L186.956 76.5335L185.753 76.7912L185.963 77.769ZM186.023 88.8198L186.31 89.7776L187.027 89.5626L187.023 88.8144L186.023 88.8198ZM181.819 89.7808L181.647 88.7957L181.642 88.7965L181.819 89.7808ZM167.585 88.4595L167.161 89.365L167.172 89.3703L167.585 88.4595ZM184.482 24.0166V34.5869H186.482V24.0166H184.482ZM185.482 33.5869H148.847V35.5869H185.482V33.5869ZM149.847 34.5869V24.0166H147.847V34.5869H149.847ZM148.847 25.0166H185.482V23.0166H148.847V25.0166ZM159.417 9.10107H173.891V7.10107H159.417V9.10107ZM172.891 8.10107V71.0425H174.891V8.10107H172.891ZM172.891 71.0425C172.891 73.1134 173.177 74.8406 173.844 76.1273L175.62 75.2067C175.166 74.3313 174.891 72.9755 174.891 71.0425H172.891ZM173.866 76.1667C174.575 77.3957 175.577 78.2676 176.867 78.714L177.521 76.8241C176.729 76.5498 176.09 76.0203 175.598 75.1673L173.866 76.1667ZM176.867 78.714C178.038 79.1192 179.374 79.3096 180.858 79.3096V77.3096C179.539 77.3096 178.433 77.1396 177.521 76.8241L176.867 78.714ZM180.858 79.3096C181.899 79.3096 182.903 79.2471 183.87 79.121L183.611 77.1378C182.737 77.2519 181.819 77.3096 180.858 77.3096V79.3096ZM183.87 79.121C184.804 78.9992 185.574 78.875 186.172 78.7468L185.753 76.7912C185.23 76.9033 184.52 77.0193 183.611 77.1378L183.87 79.121ZM184.963 77.7745L185.023 88.8253L187.023 88.8144L186.963 77.7636L184.963 77.7745ZM185.736 87.862C184.581 88.2083 183.22 88.5204 181.647 88.7957L181.991 90.7658C183.621 90.4806 185.062 90.1521 186.31 89.7776L185.736 87.862ZM181.642 88.7965C180.153 89.0638 178.412 89.2012 176.414 89.2012V91.2012C178.499 91.2012 180.362 91.0583 181.996 90.765L181.642 88.7965ZM176.414 89.2012C173.207 89.2012 170.409 88.6413 167.998 87.5486L167.172 89.3703C169.886 90.5999 172.974 91.2012 176.414 91.2012V89.2012ZM168.009 87.554C165.657 86.4512 163.808 84.669 162.46 82.1605L160.698 83.1071C162.233 85.9638 164.388 88.0654 167.161 89.3649L168.009 87.554ZM162.46 82.1605C161.125 79.6749 160.417 76.2931 160.417 71.9434H158.417C158.417 76.4823 159.151 80.2274 160.698 83.1071L162.46 82.1605ZM160.417 71.9434V8.10107H158.417V71.9434H160.417ZM2.72656 178.815L3.67334 179.137L3.6743 179.134L2.72656 178.815ZM8.6123 168.305L7.85662 167.65L7.85594 167.651L8.6123 168.305ZM18.1016 161.338L18.505 162.253L18.5095 162.251L18.1016 161.338ZM43.5664 161.338L43.1548 162.249L43.1666 162.255L43.5664 161.338ZM53.1157 168.305L52.36 168.96L52.3644 168.965L53.1157 168.305ZM59.0615 178.815L58.1138 179.134L58.1147 179.137L59.0615 178.815ZM59.0615 206.262L60.0083 206.584L59.0615 206.262ZM53.1157 216.772L53.8671 217.432L53.8714 217.427L53.1157 216.772ZM43.6265 223.739L44.0299 224.654L44.0381 224.65L43.6265 223.739ZM18.1616 223.739L17.75 224.65L17.7618 224.655L18.1616 223.739ZM8.67236 216.772L7.91666 217.427L7.92105 217.432L8.67236 216.772ZM37.9209 212.988L37.4323 212.116L37.4248 212.12L37.9209 212.988ZM45.6685 201.517L44.6974 201.278L44.6957 201.285L44.6941 201.292L45.6685 201.517ZM45.6685 183.68L44.6941 183.905L44.6961 183.913L44.6983 183.922L45.6685 183.68ZM42.7856 176.773L41.9433 177.312L41.951 177.324L42.7856 176.773ZM37.8608 172.088L37.3515 172.949L37.3618 172.955L37.3722 172.961L37.8608 172.088ZM23.7471 172.088L24.2432 172.957L24.2488 172.953L23.7471 172.088ZM16.0596 183.68L17.0332 183.908L17.034 183.905L16.0596 183.68ZM1.68457 193.229V191.848H-0.31543V193.229H1.68457ZM1.68457 191.848C1.68457 187.261 2.35083 183.027 3.67334 179.137L1.77979 178.493C0.379634 182.611 -0.31543 187.065 -0.31543 191.848H1.68457ZM3.6743 179.134C4.99792 175.202 6.89842 171.815 9.36867 168.959L7.85594 167.651C5.20119 170.72 3.17786 174.34 1.77882 178.496L3.6743 179.134ZM9.36799 168.96C11.8714 166.071 14.9132 163.836 18.505 162.253L17.6982 160.423C13.8427 162.123 10.5583 164.532 7.85662 167.65L9.36799 168.96ZM18.5095 162.251C22.1274 160.634 26.2295 159.815 30.834 159.815V157.815C25.9893 157.815 21.6031 158.678 17.6936 160.425L18.5095 162.251ZM30.834 159.815C35.4801 159.815 39.5803 160.635 43.1548 162.249L43.978 160.427C40.1053 158.678 35.7172 157.815 30.834 157.815V159.815ZM43.1666 162.255C46.7983 163.839 49.8584 166.073 52.36 168.96L53.8714 167.65C51.1679 164.53 47.8618 162.12 43.9662 160.421L43.1666 162.255ZM52.3644 168.965C54.8726 171.82 56.7912 175.205 58.1138 179.134L60.0093 178.496C58.6092 174.337 56.5639 170.715 53.867 167.645L52.3644 168.965ZM58.1147 179.137C59.4373 183.027 60.1035 187.261 60.1035 191.848H62.1035C62.1035 187.065 61.4085 182.611 60.0083 178.493L58.1147 179.137ZM60.1035 191.848V193.229H62.1035V191.848H60.1035ZM60.1035 193.229C60.1035 197.816 59.4373 202.05 58.1147 205.94L60.0083 206.584C61.4085 202.466 62.1035 198.011 62.1035 193.229H60.1035ZM58.1147 205.94C56.7923 209.829 54.8726 213.218 52.36 216.117L53.8714 217.427C56.5639 214.32 58.6081 210.702 60.0083 206.584L58.1147 205.94ZM52.3644 216.112C49.8593 218.964 46.8134 221.202 43.2149 222.827L44.0381 224.65C47.8867 222.912 51.167 220.506 53.867 217.432L52.3644 216.112ZM43.2231 222.824C39.6454 224.401 35.562 225.201 30.9541 225.201V227.201C35.7954 227.201 40.1603 226.36 44.0299 224.654L43.2231 222.824ZM30.9541 225.201C26.3052 225.201 22.1804 224.401 18.5614 222.822L17.7618 224.655C21.6702 226.36 26.0737 227.201 30.9541 227.201V225.201ZM18.5732 222.827C14.9746 221.202 11.9288 218.964 9.42368 216.112L7.92105 217.432C10.621 220.506 13.9013 222.912 17.75 224.65L18.5732 222.827ZM9.42805 216.117C6.91545 213.218 4.99578 209.829 3.67334 205.94L1.77979 206.584C3.18 210.702 5.2242 214.32 7.91667 217.427L9.42805 216.117ZM3.67334 205.94C2.35083 202.05 1.68457 197.816 1.68457 193.229H-0.31543C-0.31543 198.011 0.379634 202.466 1.77979 206.584L3.67334 205.94ZM14.1587 191.848V193.229H16.1587V191.848H14.1587ZM14.1587 193.229C14.1587 196.221 14.4661 199.059 15.0852 201.742L17.034 201.292C16.4519 198.77 16.1587 196.083 16.1587 193.229H14.1587ZM15.0852 201.742C15.7085 204.443 16.6912 206.837 18.0451 208.911L19.7196 207.817C18.5109 205.966 17.6118 203.796 17.034 201.292L15.0852 201.742ZM18.0451 208.911C19.4126 211.005 21.1727 212.659 23.3185 213.861L24.2957 212.116C22.4377 211.075 20.9146 209.647 19.7196 207.817L18.0451 208.911ZM23.3185 213.861C25.4975 215.081 28.0551 215.67 30.9541 215.67V213.67C28.3277 213.67 26.1207 213.138 24.2957 212.116L23.3185 213.861ZM30.9541 215.67C33.7781 215.67 36.278 215.079 38.417 213.857L37.4248 212.12C35.64 213.14 33.4954 213.67 30.9541 213.67V215.67ZM38.4095 213.861C40.5553 212.659 42.3154 211.005 43.683 208.911L42.0084 207.817C40.8135 209.647 39.2904 211.075 37.4323 212.116L38.4095 213.861ZM43.683 208.911C45.0368 206.837 46.0195 204.443 46.6428 201.742L44.6941 201.292C44.1163 203.796 43.2171 205.966 42.0084 207.817L43.683 208.911ZM46.6395 201.756C47.301 199.069 47.6294 196.225 47.6294 193.229H45.6294C45.6294 196.079 45.3172 198.76 44.6974 201.278L46.6395 201.756ZM47.6294 193.229V191.848H45.6294V193.229H47.6294ZM47.6294 191.848C47.6294 188.89 47.3008 186.086 46.6386 183.437L44.6983 183.922C45.3174 186.399 45.6294 189.039 45.6294 191.848H47.6294ZM46.6428 183.455C46.0185 180.749 45.0142 178.334 43.6203 176.222L41.951 177.324C43.1996 179.216 44.1172 181.405 44.6941 183.905L46.6428 183.455ZM43.6279 176.234C42.2613 174.099 40.5002 172.42 38.3494 171.216L37.3722 172.961C39.2254 173.999 40.7475 175.443 41.9434 177.312L43.6279 176.234ZM38.3702 171.228C36.2265 169.959 33.7009 169.347 30.834 169.347V171.347C33.4124 171.347 35.5714 171.895 37.3515 172.949L38.3702 171.228ZM30.834 169.347C27.9664 169.347 25.4247 169.959 23.2454 171.223L24.2488 172.953C26.0733 171.895 28.2562 171.347 30.834 171.347V169.347ZM23.2509 171.22C21.1414 172.426 19.4037 174.103 18.0401 176.234L19.7246 177.312C20.9234 175.439 22.4289 173.993 24.2432 172.957L23.2509 171.22ZM18.0401 176.234C16.69 178.343 15.7083 180.754 15.0852 183.455L17.034 183.905C17.612 181.4 18.5122 179.206 19.7246 177.312L18.0401 176.234ZM15.086 183.451C14.4663 186.096 14.1587 188.895 14.1587 191.848H16.1587C16.1587 189.034 16.4517 186.389 17.0332 183.908L15.086 183.451ZM88.8194 173.89H89.8194V173.86L89.8175 173.83L88.8194 173.89ZM88.8194 225V226H89.8194V225H88.8194ZM74.3452 225H73.3452V226H74.3452V225ZM74.3452 160.017V159.017H73.3452V160.017H74.3452ZM87.9785 160.017L88.9767 159.956L88.9198 159.017H87.9785V160.017ZM86.2368 190.106L86.224 191.106L87.2368 191.119V190.106H86.2368ZM81.5523 190.046L80.5523 190.037L80.5436 191.033L81.5395 191.046L81.5523 190.046ZM83.4741 177.374L82.5254 177.057L82.5225 177.066L83.4741 177.374ZM88.7593 167.464L87.9883 166.827L87.9828 166.834L88.7593 167.464ZM96.9273 161.098L97.3514 162.003L97.3607 161.999L96.9273 161.098ZM115.966 160.137L115.636 161.081L115.645 161.084L115.654 161.087L115.966 160.137ZM122.512 164.281L121.783 164.965L121.79 164.973L122.512 164.281ZM126.716 171.788L125.762 172.086L125.763 172.089L126.716 171.788ZM128.158 225V226H129.158V225H128.158ZM113.624 225H112.624V226H113.624V225ZM112.242 175.572L111.34 176.003L111.346 176.015L111.352 176.027L112.242 175.572ZM108.338 171.668L107.908 172.571L107.921 172.577L107.934 172.583L108.338 171.668ZM90.3809 176.292L89.583 175.69L89.5787 175.695L89.5745 175.701L90.3809 176.292ZM87.8194 173.89V225H89.8194V173.89H87.8194ZM88.8194 224H74.3452V226H88.8194V224ZM75.3452 225V160.017H73.3452V225H75.3452ZM74.3452 161.017H87.9785V159.017H74.3452V161.017ZM86.9804 160.077L87.8212 173.951L89.8175 173.83L88.9767 159.956L86.9804 160.077ZM86.2497 189.106L81.5651 189.046L81.5395 191.046L86.224 191.106L86.2497 189.106ZM82.5522 190.055C82.5915 185.538 83.2197 181.416 84.4258 177.681L82.5225 177.066C81.2461 181.019 80.5931 185.345 80.5523 190.037L82.5522 190.055ZM84.4228 177.69C85.6712 173.945 87.3792 170.751 89.5358 168.094L87.9828 166.834C85.6551 169.702 83.8395 173.115 82.5255 177.057L84.4228 177.69ZM89.5303 168.101C91.7207 165.449 94.3259 163.42 97.3514 162.003L96.5031 160.192C93.2024 161.738 90.3623 163.953 87.9883 166.827L89.5303 168.101ZM97.3607 161.999C100.375 160.549 103.748 159.815 107.498 159.815V157.815C103.48 157.815 99.806 158.603 96.4938 160.196L97.3607 161.999ZM107.498 159.815C110.527 159.815 113.236 160.243 115.636 161.081L116.296 159.193C113.651 158.269 110.714 157.815 107.498 157.815V159.815ZM115.654 161.087C118.061 161.877 120.098 163.168 121.783 164.965L123.242 163.597C121.322 161.55 118.996 160.078 116.278 159.187L115.654 161.087ZM121.79 164.973C123.505 166.762 124.837 169.119 125.762 172.086L127.671 171.491C126.674 168.291 125.203 165.644 123.234 163.589L121.79 164.973ZM125.763 172.089C126.683 175.005 127.158 178.64 127.158 183.019H129.158C129.158 178.509 128.671 174.657 127.67 171.487L125.763 172.089ZM127.158 183.019V225H129.158V183.019H127.158ZM128.158 224H113.624V226H128.158V224ZM114.624 225V182.959H112.624V225H114.624ZM114.624 182.959C114.624 179.756 114.154 177.115 113.133 175.117L111.352 176.027C112.172 177.632 112.624 179.916 112.624 182.959H114.624ZM113.144 175.14C112.17 173.103 110.702 171.619 108.743 170.753L107.934 172.583C109.418 173.238 110.553 174.357 111.34 176.003L113.144 175.14ZM108.768 170.765C106.914 169.882 104.654 169.467 102.032 169.467V171.467C104.456 171.467 106.4 171.852 107.908 172.571L108.768 170.765ZM102.032 169.467C99.4059 169.467 97.0196 170.019 94.897 171.145L95.8345 172.912C97.6357 171.956 99.6937 171.467 102.032 171.467V169.467ZM94.897 171.145C92.804 172.256 91.0308 173.774 89.583 175.69L91.1787 176.895C92.4537 175.208 94.0036 173.883 95.8345 172.912L94.897 171.145ZM89.5745 175.701C88.18 177.603 87.1115 179.788 86.3614 182.247L88.2744 182.83C88.9657 180.564 89.9391 178.586 91.1873 176.884L89.5745 175.701ZM86.3614 182.247C85.6095 184.711 85.2368 187.333 85.2368 190.106H87.2368C87.2368 187.514 87.5849 185.09 88.2744 182.83L86.3614 182.247ZM205.811 160.017H206.811V159.017H205.811V160.017ZM205.811 170.587V171.587H206.811V170.587H205.811ZM169.175 170.587H168.175V171.587H169.175V170.587ZM169.175 160.017V159.017H168.175V160.017H169.175ZM179.746 144.101V143.101H178.746V144.101H179.746ZM194.22 144.101H195.22V143.101H194.22V144.101ZM195.061 211.667L194.173 212.127L194.183 212.147L194.194 212.167L195.061 211.667ZM206.292 213.769L207.292 213.764L207.285 212.533L206.082 212.791L206.292 213.769ZM206.352 224.82L206.639 225.778L207.356 225.563L207.352 224.814L206.352 224.82ZM202.148 225.781L201.975 224.796L201.971 224.796L202.148 225.781ZM187.914 224.459L187.489 225.365L187.501 225.37L187.914 224.459ZM204.811 160.017V170.587H206.811V160.017H204.811ZM205.811 169.587H169.175V171.587H205.811V169.587ZM170.175 170.587V160.017H168.175V170.587H170.175ZM169.175 161.017H205.811V159.017H169.175V161.017ZM179.746 145.101H194.22V143.101H179.746V145.101ZM193.22 144.101V207.042H195.22V144.101H193.22ZM193.22 207.042C193.22 209.113 193.506 210.841 194.173 212.127L195.948 211.207C195.494 210.331 195.22 208.975 195.22 207.042H193.22ZM194.194 212.167C194.903 213.396 195.906 214.268 197.196 214.714L197.85 212.824C197.058 212.55 196.419 212.02 195.927 211.167L194.194 212.167ZM197.196 214.714C198.366 215.119 199.703 215.31 201.187 215.31V213.31C199.868 213.31 198.762 213.14 197.85 212.824L197.196 214.714ZM201.187 215.31C202.227 215.31 203.232 215.247 204.199 215.121L203.94 213.138C203.065 213.252 202.148 213.31 201.187 213.31V215.31ZM204.199 215.121C205.132 214.999 205.903 214.875 206.501 214.747L206.082 212.791C205.559 212.903 204.848 213.019 203.94 213.138L204.199 215.121ZM205.292 213.774L205.352 224.825L207.352 224.814L207.292 213.764L205.292 213.774ZM206.064 223.862C204.91 224.208 203.549 224.52 201.975 224.796L202.32 226.766C203.95 226.481 205.391 226.152 206.639 225.778L206.064 223.862ZM201.971 224.796C200.481 225.064 198.741 225.201 196.742 225.201V227.201C198.828 227.201 200.691 227.058 202.324 226.765L201.971 224.796ZM196.742 225.201C193.536 225.201 190.738 224.641 188.326 223.549L187.501 225.37C190.214 226.6 193.302 227.201 196.742 227.201V225.201ZM188.338 223.554C185.985 222.451 184.137 220.669 182.789 218.16L181.027 219.107C182.562 221.964 184.717 224.065 187.489 225.365L188.338 223.554ZM182.789 218.16C181.453 215.675 180.746 212.293 180.746 207.943H178.746C178.746 212.482 179.48 216.227 181.027 219.107L182.789 218.16ZM180.746 207.943V144.101H178.746V207.943H180.746ZM232.506 132.75H233.506V131.75H232.506V132.75ZM232.506 225V226H233.506V225H232.506ZM218.092 225H217.092V226H218.092V225ZM218.092 132.75V131.75H217.092V132.75H218.092ZM229.983 190.106L229.971 191.106L230.983 191.119V190.106H229.983ZM225.299 190.046L224.299 190.037L224.29 191.033L225.286 191.046L225.299 190.046ZM227.161 177.614L226.21 177.304L226.207 177.313L227.161 177.614ZM232.326 167.704L231.541 167.085L231.539 167.086L232.326 167.704ZM240.374 161.158L240.812 162.057L240.821 162.052L240.374 161.158ZM259.412 160.137L259.087 161.082L259.092 161.084L259.412 160.137ZM266.139 164.401L265.417 165.093L265.424 165.101L266.139 164.401ZM270.403 171.968L269.447 172.262L269.449 172.27L269.452 172.277L270.403 171.968ZM271.904 225V226H272.904V225H271.904ZM257.37 225H256.37V226H257.37V225ZM255.989 175.692L255.087 176.123L255.09 176.131L255.094 176.139L255.989 175.692ZM252.085 171.728L251.646 172.627L251.655 172.631L251.663 172.635L252.085 171.728ZM238.872 172.028L238.411 171.141L238.403 171.145L238.872 172.028ZM230.944 182.539L229.984 182.262L229.981 182.269L229.979 182.277L230.944 182.539ZM231.506 132.75V225H233.506V132.75H231.506ZM232.506 224H218.092V226H232.506V224ZM219.092 225V132.75H217.092V225H219.092ZM218.092 133.75H232.506V131.75H218.092V133.75ZM229.996 189.106L225.312 189.046L225.286 191.046L229.971 191.106L229.996 189.106ZM226.299 190.055C226.338 185.657 226.946 181.613 228.114 177.915L226.207 177.313C224.973 181.222 224.34 185.466 224.299 190.037L226.299 190.055ZM228.111 177.924C229.321 174.218 230.991 171.022 233.112 168.322L231.539 167.086C229.257 169.992 227.483 173.402 226.21 177.304L228.111 177.924ZM233.111 168.323C235.264 165.594 237.83 163.509 240.812 162.057L239.936 160.259C236.672 161.849 233.872 164.129 231.541 167.085L233.111 168.323ZM240.821 162.052C243.793 160.566 247.101 159.815 250.764 159.815V157.815C246.819 157.815 243.2 158.626 239.926 160.263L240.821 162.052ZM250.764 159.815C253.876 159.815 256.646 160.243 259.087 161.082L259.737 159.191C257.053 158.268 254.058 157.815 250.764 157.815V159.815ZM259.092 161.084C261.544 161.914 263.648 163.248 265.417 165.093L266.86 163.709C264.866 161.629 262.486 160.121 259.733 159.189L259.092 161.084ZM265.424 165.101C267.173 166.886 268.523 169.259 269.447 172.262L271.359 171.674C270.361 168.431 268.868 165.759 266.853 163.701L265.424 165.101ZM269.452 172.277C270.411 175.231 270.904 178.884 270.904 183.259H272.904C272.904 178.746 272.397 174.872 271.354 171.659L269.452 172.277ZM270.904 183.259V225H272.904V183.259H270.904ZM271.904 224H257.37V226H271.904V224ZM258.37 225V183.139H256.37V225H258.37ZM258.37 183.139C258.37 179.934 257.9 177.279 256.883 175.245L255.094 176.139C255.919 177.789 256.37 180.098 256.37 183.139H258.37ZM256.891 175.26C255.918 173.226 254.455 171.728 252.507 170.821L251.663 172.635C253.158 173.33 254.298 174.474 255.087 176.123L256.891 175.26ZM252.524 170.829C250.631 169.905 248.37 169.467 245.779 169.467V171.467C248.153 171.467 250.095 171.869 251.646 172.627L252.524 170.829ZM245.779 169.467C243.04 169.467 240.576 170.015 238.411 171.141L239.333 172.916C241.173 171.959 243.312 171.467 245.779 171.467V169.467ZM238.403 171.145C236.308 172.257 234.551 173.779 233.141 175.701L234.754 176.884C235.986 175.203 237.513 173.882 239.341 172.912L238.403 171.145ZM233.141 175.701C231.743 177.607 230.693 179.798 229.984 182.262L231.905 182.815C232.557 180.555 233.509 178.582 234.754 176.884L233.141 175.701ZM229.979 182.277C229.313 184.732 228.983 187.343 228.983 190.106H230.983C230.983 187.503 231.294 185.07 231.91 182.8L229.979 182.277ZM303.404 223.859L303.019 224.782L303.031 224.787L303.404 223.859ZM293.554 217.192L292.827 217.879L292.832 217.884L293.554 217.192ZM293.614 167.944L294.356 168.615L294.361 168.61L293.614 167.944ZM335.535 167.764L334.755 168.39L334.76 168.396L334.765 168.402L335.535 167.764ZM340.7 177.794L339.739 178.071L339.742 178.08L340.7 177.794ZM342.442 196.833V197.833H343.442V196.833H342.442ZM292.233 196.833H291.233V197.833H292.233V196.833ZM292.233 186.442V185.442H291.233V186.442H292.233ZM328.148 186.442V187.442H329.148V186.442H328.148ZM328.148 185.301H329.148V185.286L329.148 185.271L328.148 185.301ZM326.587 177.974L325.659 178.348L325.662 178.355L325.665 178.362L326.587 177.974ZM308.209 171.908L308.686 172.787L308.693 172.783L308.209 171.908ZM300.701 183.259L299.731 183.017L299.729 183.027L300.701 183.259ZM300.881 202.658L299.927 202.956L299.93 202.965L299.933 202.974L300.881 202.658ZM309.89 213.229L309.456 214.13L309.463 214.133L309.47 214.136L309.89 213.229ZM333.673 206.682L334.369 205.964L333.57 205.19L332.885 206.066L333.673 206.682ZM341.301 214.069L342.125 214.635L342.603 213.939L341.997 213.351L341.301 214.069ZM335.836 219.955L336.47 220.728L336.478 220.721L335.836 219.955ZM327.608 224.459L327.27 223.518L327.267 223.519L327.608 224.459ZM316.437 225.201C311.741 225.201 307.526 224.438 303.777 222.931L303.031 224.787C307.049 226.402 311.523 227.201 316.437 227.201V225.201ZM303.789 222.936C300.065 221.384 296.898 219.238 294.276 216.501L292.832 217.884C295.656 220.832 299.056 223.13 303.019 224.782L303.789 222.936ZM294.282 216.506C291.695 213.765 289.702 210.537 288.305 206.811L286.432 207.514C287.918 211.476 290.049 214.934 292.827 217.879L294.282 216.506ZM288.305 206.811C286.909 203.089 286.206 199.065 286.206 194.73H284.206C284.206 199.285 284.945 203.549 286.432 207.514L288.305 206.811ZM286.206 194.73V192.328H284.206V194.73H286.206ZM286.206 192.328C286.206 187.34 286.933 182.852 288.369 178.853L286.487 178.177C284.961 182.425 284.206 187.146 284.206 192.328H286.206ZM288.369 178.853C289.812 174.838 291.81 171.431 294.356 168.615L292.873 167.274C290.133 170.304 288.008 173.944 286.487 178.177L288.369 178.853ZM294.361 168.61C296.908 165.754 299.912 163.578 303.381 162.075L302.586 160.24C298.848 161.86 295.606 164.209 292.868 167.279L294.361 168.61ZM303.381 162.075C306.85 160.572 310.618 159.815 314.695 159.815V157.815C310.364 157.815 306.324 158.62 302.586 160.24L303.381 162.075ZM314.695 159.815C319.228 159.815 323.148 160.577 326.478 162.07L327.296 160.245C323.659 158.615 319.451 157.815 314.695 157.815V159.815ZM326.478 162.07C329.824 163.57 332.577 165.677 334.755 168.39L336.315 167.138C333.929 164.166 330.917 161.868 327.296 160.245L326.478 162.07ZM334.765 168.402C336.991 171.088 338.652 174.305 339.74 178.071L341.661 177.517C340.506 173.515 338.724 170.046 336.305 167.126L334.765 168.402ZM339.742 178.08C340.872 181.858 341.442 186.044 341.442 190.646H343.442C343.442 185.88 342.851 181.497 341.658 177.508L339.742 178.08ZM341.442 190.646V196.833H343.442V190.646H341.442ZM342.442 195.833H292.233V197.833H342.442V195.833ZM293.233 196.833V186.442H291.233V196.833H293.233ZM292.233 187.442H328.148V185.442H292.233V187.442ZM329.148 186.442V185.301H327.148V186.442H329.148ZM329.148 185.271C329.064 182.552 328.519 179.987 327.508 177.586L325.665 178.362C326.576 180.525 327.072 182.846 327.149 185.332L329.148 185.271ZM327.514 177.6C326.526 175.151 324.99 173.156 322.912 171.641L321.733 173.257C323.499 174.544 324.806 176.233 325.659 178.348L327.514 177.6ZM322.912 171.641C320.768 170.078 317.977 169.347 314.635 169.347V171.347C317.699 171.347 320.033 172.017 321.733 173.257L322.912 171.641ZM314.635 169.347C312.083 169.347 309.771 169.901 307.725 171.033L308.693 172.783C310.41 171.833 312.382 171.347 314.635 171.347V169.347ZM307.731 171.03C305.729 172.118 304.068 173.701 302.744 175.75L304.424 176.835C305.583 175.041 307.005 173.701 308.686 172.787L307.731 171.03ZM302.744 175.75C301.432 177.782 300.433 180.211 299.731 183.017L301.671 183.502C302.331 180.862 303.254 178.647 304.424 176.835L302.744 175.75ZM299.729 183.027C299.066 185.8 298.74 188.903 298.74 192.328H300.74C300.74 189.027 301.055 186.084 301.674 183.492L299.729 183.027ZM298.74 192.328V194.73H300.74V192.328H298.74ZM298.74 194.73C298.74 197.663 299.133 200.407 299.927 202.956L301.836 202.361C301.109 200.025 300.74 197.484 300.74 194.73H298.74ZM299.933 202.974C300.771 205.488 301.992 207.704 303.601 209.61L305.129 208.319C303.695 206.621 302.594 204.633 301.83 202.342L299.933 202.974ZM303.601 209.61C305.215 211.521 307.17 213.029 309.456 214.13L310.324 212.328C308.286 211.346 306.558 210.011 305.129 208.319L303.601 209.61ZM309.47 214.136C311.783 215.207 314.393 215.73 317.277 215.73V213.73C314.637 213.73 312.321 213.252 310.31 212.321L309.47 214.136ZM317.277 215.73C320.898 215.73 324.162 215.001 327.044 213.517L326.129 211.739C323.566 213.058 320.624 213.73 317.277 213.73V215.73ZM327.044 213.517C329.903 212.045 332.376 209.967 334.461 207.298L332.885 206.066C330.967 208.522 328.715 210.408 326.129 211.739L327.044 213.517ZM332.978 207.4L340.605 214.788L341.997 213.351L334.369 205.964L332.978 207.4ZM340.476 213.503C339.134 215.459 337.378 217.355 335.193 219.189L336.478 220.721C338.778 218.791 340.665 216.764 342.125 214.635L340.476 213.503ZM335.201 219.182C333.062 220.939 330.425 222.389 327.27 223.518L327.945 225.401C331.276 224.208 334.124 222.655 336.47 220.728L335.201 219.182ZM327.267 223.519C324.196 224.632 320.592 225.201 316.437 225.201V227.201C320.77 227.201 324.613 226.609 327.948 225.4L327.267 223.519ZM20.9844 273.555H21.9844V272.555H20.9844V273.555ZM20.9844 361V362H21.9844V361H20.9844ZM5.90967 361H4.90967V362H5.90967V361ZM5.90967 273.555V272.555H4.90967V273.555H5.90967ZM19.9844 273.555V361H21.9844V273.555H19.9844ZM20.9844 360H5.90967V362H20.9844V360ZM6.90967 361V273.555H4.90967V361H6.90967ZM5.90967 274.555H20.9844V272.555H5.90967V274.555ZM53.8653 309.89H54.8653V309.86L54.8634 309.83L53.8653 309.89ZM53.8653 361V362H54.8653V361H53.8653ZM39.3911 361H38.3911V362H39.3911V361ZM39.3911 296.017V295.017H38.3911V296.017H39.3911ZM53.0244 296.017L54.0226 295.956L53.9657 295.017H53.0244V296.017ZM51.2827 326.106L51.2699 327.106L52.2827 327.119V326.106H51.2827ZM46.5982 326.046L45.5982 326.037L45.5895 327.033L46.5853 327.046L46.5982 326.046ZM48.52 313.374L47.5713 313.057L47.5684 313.066L48.52 313.374ZM53.8052 303.464L53.0342 302.827L53.0287 302.834L53.8052 303.464ZM61.9732 297.098L62.3973 298.003L62.4066 297.999L61.9732 297.098ZM81.0117 296.137L80.6821 297.081L80.691 297.084L80.7 297.087L81.0117 296.137ZM87.5581 300.281L86.8285 300.965L86.8361 300.973L87.5581 300.281ZM91.7622 307.788L90.8075 308.086L90.8086 308.089L91.7622 307.788ZM93.2036 361V362H94.2036V361H93.2036ZM78.6694 361H77.6694V362H78.6694V361ZM77.2881 311.572L76.386 312.003L76.3917 312.015L76.3977 312.027L77.2881 311.572ZM73.3843 307.668L72.9544 308.571L72.9672 308.577L72.9801 308.583L73.3843 307.668ZM55.4268 312.292L54.6289 311.69L54.6246 311.695L54.6204 311.701L55.4268 312.292ZM52.8653 309.89V361H54.8653V309.89H52.8653ZM53.8653 360H39.3911V362H53.8653V360ZM40.3911 361V296.017H38.3911V361H40.3911ZM39.3911 297.017H53.0244V295.017H39.3911V297.017ZM52.0263 296.077L52.8671 309.951L54.8634 309.83L54.0226 295.956L52.0263 296.077ZM51.2956 325.106L46.611 325.046L46.5853 327.046L51.2699 327.106L51.2956 325.106ZM47.5981 326.055C47.6374 321.538 48.2656 317.416 49.4717 313.681L47.5684 313.066C46.292 317.019 45.639 321.345 45.5982 326.037L47.5981 326.055ZM49.4687 313.69C50.7171 309.944 52.425 306.751 54.5817 304.094L53.0287 302.834C50.701 305.702 48.8854 309.115 47.5714 313.057L49.4687 313.69ZM54.5762 304.101C56.7666 301.449 59.3718 299.42 62.3973 298.003L61.549 296.192C58.2483 297.738 55.4082 299.953 53.0342 302.827L54.5762 304.101ZM62.4066 297.999C65.4206 296.549 68.7936 295.815 72.5435 295.815V293.815C68.5258 293.815 64.8519 294.603 61.5397 296.197L62.4066 297.999ZM72.5435 295.815C75.5728 295.815 78.2818 296.243 80.6821 297.081L81.3414 295.193C78.6968 294.269 75.7602 293.815 72.5435 293.815V295.815ZM80.7 297.087C83.107 297.877 85.1444 299.168 86.8286 300.965L88.2877 299.597C86.3684 297.55 84.0414 296.078 81.3235 295.187L80.7 297.087ZM86.8361 300.973C88.5505 302.762 89.8829 305.119 90.8075 308.086L92.7169 307.491C91.7196 304.291 90.2494 301.644 88.2801 299.589L86.8361 300.973ZM90.8086 308.089C91.7294 311.005 92.2036 314.64 92.2036 319.019H94.2036C94.2036 314.509 93.7169 310.657 92.7158 307.487L90.8086 308.089ZM92.2036 319.019V361H94.2036V319.019H92.2036ZM93.2036 360H78.6694V362H93.2036V360ZM79.6694 361V318.959H77.6694V361H79.6694ZM79.6694 318.959C79.6694 315.756 79.2001 313.115 78.1785 311.117L76.3977 312.027C77.2179 313.632 77.6694 315.916 77.6694 318.959H79.6694ZM78.1902 311.14C77.2158 309.103 75.7476 307.619 73.7885 306.753L72.9801 308.583C74.4643 309.238 75.5987 310.357 76.386 312.003L78.1902 311.14ZM73.8142 306.765C71.9595 305.882 69.6994 305.467 67.0781 305.467V307.467C69.5018 307.467 71.4458 307.852 72.9544 308.571L73.8142 306.765ZM67.0781 305.467C64.4518 305.467 62.0655 306.019 59.9429 307.145L60.8804 308.912C62.6816 307.956 64.7396 307.467 67.0781 307.467V305.467ZM59.9429 307.145C57.8499 308.256 56.0767 309.773 54.6289 311.69L56.2246 312.895C57.4995 311.208 59.0495 309.883 60.8804 308.912L59.9429 307.145ZM54.6204 311.701C53.2259 313.603 52.1574 315.788 51.4073 318.247L53.3203 318.83C54.0116 316.564 54.985 314.586 56.2332 312.884L54.6204 311.701ZM51.4073 318.247C50.6554 320.711 50.2827 323.333 50.2827 326.106H52.2827C52.2827 323.514 52.6308 321.09 53.3203 318.83L51.4073 318.247ZM144.583 339.499L143.725 340.014L143.729 340.02L143.733 340.026L144.583 339.499ZM140.439 336.256L140.006 337.157L140.013 337.161L140.439 336.256ZM131.55 333.613L131.334 334.59L131.342 334.591L131.35 334.593L131.55 333.613ZM122.061 330.911L121.705 331.845L121.713 331.848L121.721 331.851L122.061 330.911ZM122.901 296.377L122.585 295.428L122.581 295.43L122.901 296.377ZM147.345 297.578L146.917 298.482L146.928 298.487L147.345 297.578ZM156.354 304.965L155.522 305.52L155.525 305.525L156.354 304.965ZM159.477 315.416V316.416H160.477V315.416H159.477ZM145.003 315.416H144.003V316.416H145.003V315.416ZM143.682 310.611L142.806 311.095L142.814 311.108L142.822 311.122L143.682 310.611ZM139.838 306.947L139.351 307.82L139.358 307.825L139.366 307.829L139.838 306.947ZM127.166 306.707L127.595 307.61L127.604 307.606L127.166 306.707ZM123.562 309.71L122.722 309.168L122.715 309.178L122.709 309.187L123.562 309.71ZM123.022 316.737L122.111 317.151L122.123 317.176L122.136 317.201L123.022 316.737ZM125.184 319.079L124.599 319.891L124.61 319.898L124.621 319.906L125.184 319.079ZM129.268 321.001L128.938 321.945L128.945 321.947L129.268 321.001ZM135.874 322.743L135.667 323.721L135.669 323.721L135.874 322.743ZM148.667 326.767L148.248 327.675L148.26 327.68L148.667 326.767ZM156.955 333.013L156.155 333.613L156.159 333.619L156.955 333.013ZM157.976 350.55L157.087 350.091L157.084 350.097L157.976 350.55ZM152.69 356.736L153.286 357.539L153.295 357.533L152.69 356.736ZM144.342 360.76L144.058 359.801L144.055 359.802L144.342 360.76ZM118.577 359.078L118.116 359.966L118.123 359.969L118.577 359.078ZM109.268 350.97L108.421 351.501L108.428 351.513L109.268 350.97ZM106.145 340.64V339.64H105.145V340.64H106.145ZM120.139 340.64L121.137 340.581L121.081 339.64H120.139V340.64ZM122.361 347.066L121.59 347.703L121.598 347.713L121.607 347.724L122.361 347.066ZM127.406 350.49L127.067 351.431L127.078 351.435L127.09 351.438L127.406 350.49ZM140.258 350.49L140.619 351.423L140.628 351.419L140.637 351.415L140.258 350.49ZM144.282 347.607L145.076 348.215L145.081 348.209L145.085 348.203L144.282 347.607ZM146.664 343.403C146.664 341.786 146.257 340.3 145.432 338.972L143.733 340.026C144.35 341.02 144.664 342.137 144.664 343.403H146.664ZM145.44 338.985C144.572 337.538 142.986 336.349 140.864 335.351L140.013 337.161C141.975 338.084 143.151 339.057 143.725 340.014L145.44 338.985ZM140.871 335.354C138.758 334.34 135.701 333.44 131.75 332.633L131.35 334.593C135.247 335.388 138.115 336.25 140.006 337.157L140.871 335.354ZM131.766 332.637C128.358 331.884 125.237 330.995 122.4 329.97L121.721 331.851C124.65 332.909 127.855 333.821 131.334 334.59L131.766 332.637ZM122.416 329.976C119.643 328.922 117.286 327.662 115.331 326.205L114.136 327.809C116.265 329.395 118.792 330.738 121.705 331.845L122.416 329.976ZM115.331 326.205C113.397 324.764 111.916 323.071 110.869 321.127L109.108 322.076C110.304 324.296 111.986 326.207 114.136 327.809L115.331 326.205ZM110.869 321.127C109.838 319.212 109.307 316.977 109.307 314.395H107.307C107.307 317.257 107.898 319.827 109.108 322.076L110.869 321.127ZM109.307 314.395C109.307 311.904 109.853 309.553 110.946 307.328L109.151 306.446C107.923 308.946 107.307 311.6 107.307 314.395H109.307ZM110.946 307.328C112.041 305.1 113.612 303.128 115.674 301.409L114.394 299.873C112.131 301.758 110.379 303.949 109.151 306.446L110.946 307.328ZM115.674 301.409C117.728 299.698 120.237 298.332 123.221 297.324L122.581 295.43C119.4 296.504 116.664 297.981 114.394 299.873L115.674 301.409ZM123.218 297.326C126.223 296.324 129.598 295.815 133.352 295.815V293.815C129.418 293.815 125.826 294.348 122.585 295.428L123.218 297.326ZM133.352 295.815C138.687 295.815 143.198 296.718 146.917 298.482L147.774 296.675C143.725 294.755 138.907 293.815 133.352 293.815V295.815ZM146.928 298.487C150.709 300.223 153.557 302.573 155.522 305.52L157.186 304.411C154.987 301.111 151.829 298.537 147.763 296.669L146.928 298.487ZM155.525 305.525C157.491 308.435 158.477 311.722 158.477 315.416H160.477C160.477 311.342 159.382 307.661 157.183 304.406L155.525 305.525ZM159.477 314.416H145.003V316.416H159.477V314.416ZM146.003 315.416C146.003 313.514 145.514 311.736 144.541 310.1L142.822 311.122C143.611 312.449 144.003 313.874 144.003 315.416H146.003ZM144.557 310.127C143.612 308.417 142.18 307.066 140.31 306.065L139.366 307.829C140.939 308.671 142.07 309.762 142.806 311.095L144.557 310.127ZM140.325 306.074C138.414 305.008 136.072 304.506 133.352 304.506V306.506C135.836 306.506 137.818 306.965 139.351 307.82L140.325 306.074ZM133.352 304.506C130.769 304.506 128.545 304.921 126.727 305.808L127.604 307.606C129.069 306.891 130.969 306.506 133.352 306.506V304.506ZM126.737 305.804C125.001 306.628 123.642 307.742 122.722 309.168L124.402 310.252C125.084 309.196 126.127 308.307 127.595 307.61L126.737 305.804ZM122.709 309.187C121.851 310.589 121.421 312.131 121.421 313.794H123.421C123.421 312.494 123.752 311.314 124.415 310.233L122.709 309.187ZM121.421 313.794C121.421 315.001 121.645 316.125 122.111 317.151L123.932 316.323C123.597 315.587 123.421 314.749 123.421 313.794H121.421ZM122.136 317.201C122.667 318.214 123.509 319.105 124.599 319.891L125.768 318.268C124.857 317.611 124.257 316.941 123.907 316.273L122.136 317.201ZM124.621 319.906C125.721 320.654 127.171 321.329 128.938 321.945L129.597 320.057C127.921 319.472 126.648 318.866 125.746 318.252L124.621 319.906ZM128.945 321.947C130.757 322.565 133.001 323.155 135.667 323.721L136.082 321.764C133.462 321.209 131.302 320.638 129.59 320.054L128.945 321.947ZM135.669 323.721C140.58 324.751 144.769 326.072 148.248 327.675L149.085 325.858C145.437 324.178 141.097 322.816 136.079 321.764L135.669 323.721ZM148.26 327.68C151.744 329.229 154.356 331.215 156.155 333.613L157.755 332.413C155.709 329.686 152.796 327.508 149.073 325.853L148.26 327.68ZM156.159 333.619C157.921 335.931 158.837 338.907 158.837 342.622H160.837C160.837 338.57 159.832 335.139 157.75 332.407L156.159 333.619ZM158.837 342.622C158.837 345.356 158.25 347.84 157.087 350.091L158.864 351.009C160.183 348.455 160.837 345.654 160.837 342.622H158.837ZM157.084 350.097C155.958 352.311 154.3 354.26 152.086 355.939L153.295 357.533C155.725 355.689 157.591 353.513 158.867 351.003L157.084 350.097ZM152.095 355.933C149.881 357.574 147.208 358.868 144.058 359.801L144.626 361.719C147.963 360.73 150.855 359.341 153.286 357.539L152.095 355.933ZM144.055 359.802C140.961 360.73 137.457 361.201 133.532 361.201V363.201C137.614 363.201 141.317 362.711 144.63 361.718L144.055 359.802ZM133.532 361.201C127.76 361.201 122.94 360.18 119.031 358.187L118.123 359.969C122.382 362.14 127.532 363.201 133.532 363.201V361.201ZM119.038 358.191C115.081 356.134 112.12 353.541 110.108 350.427L108.428 351.513C110.66 354.966 113.906 357.778 118.116 359.965L119.038 358.191ZM110.116 350.439C108.123 347.259 107.145 343.997 107.145 340.64H105.145C105.145 344.41 106.249 348.035 108.421 351.501L110.116 350.439ZM106.145 341.64H120.139V339.64H106.145V341.64ZM119.14 340.7C119.31 343.532 120.099 345.896 121.59 347.703L123.132 346.43C121.981 345.034 121.288 343.114 121.137 340.581L119.14 340.7ZM121.607 347.724C123.083 349.417 124.909 350.654 127.067 351.431L127.745 349.549C125.898 348.884 124.361 347.839 123.115 346.409L121.607 347.724ZM127.09 351.438C129.234 352.153 131.443 352.511 133.712 352.511V350.511C131.657 350.511 129.662 350.188 127.722 349.541L127.09 351.438ZM133.712 352.511C136.394 352.511 138.708 352.161 140.619 351.423L139.898 349.557C138.286 350.18 136.235 350.511 133.712 350.511V352.511ZM140.637 351.415C142.521 350.645 144.023 349.589 145.076 348.215L143.489 346.999C142.7 348.027 141.519 348.894 139.88 349.564L140.637 351.415ZM145.085 348.203C146.136 346.787 146.664 345.177 146.664 343.403H144.664C144.664 344.752 144.271 345.944 143.479 347.011L145.085 348.203ZM189.235 296.017H190.235V295.017H189.235V296.017ZM189.235 361V362H190.235V361H189.235ZM174.701 361H173.701V362H174.701V361ZM174.701 296.017V295.017H173.701V296.017H174.701ZM188.094 273.495L187.387 274.202L187.396 274.211L188.094 273.495ZM175.902 284.365L175.195 285.072L175.205 285.082L175.902 284.365ZM188.235 296.017V361H190.235V296.017H188.235ZM189.235 360H174.701V362H189.235V360ZM175.701 361V296.017H173.701V361H175.701ZM174.701 297.017H189.235V295.017H174.701V297.017ZM174.74 278.96C174.74 277 175.371 275.44 176.609 274.202L175.195 272.788C173.55 274.432 172.74 276.516 172.74 278.96H174.74ZM176.609 274.202C177.86 272.951 179.623 272.272 182.028 272.272V270.272C179.228 270.272 176.907 271.075 175.195 272.788L176.609 274.202ZM182.028 272.272C184.388 272.272 186.133 272.948 187.387 274.202L188.801 272.788C187.092 271.078 184.793 270.272 182.028 270.272V272.272ZM187.396 274.211C188.671 275.451 189.316 277.008 189.316 278.96H191.316C191.316 276.508 190.48 274.421 188.791 272.778L187.396 274.211ZM189.316 278.96C189.316 280.866 188.675 282.405 187.396 283.648L188.791 285.082C190.476 283.443 191.316 281.378 191.316 278.96H189.316ZM187.396 283.648C186.144 284.867 184.396 285.527 182.028 285.527V287.527C184.785 287.527 187.081 286.746 188.791 285.082L187.396 283.648ZM182.028 285.527C179.615 285.527 177.849 284.864 176.599 283.648L175.205 285.082C176.918 286.749 179.236 287.527 182.028 287.527V285.527ZM176.609 283.658C175.367 282.417 174.74 280.875 174.74 278.96H172.74C172.74 281.369 173.554 283.431 175.195 285.072L176.609 283.658ZM245.959 347.547H244.959V347.598L244.964 347.649L245.959 347.547ZM245.959 268.75V267.75H244.959V268.75H245.959ZM260.493 268.75H261.493V267.75H260.493V268.75ZM260.493 361V362H261.493V361H260.493ZM247.34 361L246.346 361.102L246.438 362H247.34V361ZM205.42 314.515L206.381 314.791L206.381 314.788L205.42 314.515ZM210.464 304.004L211.263 304.606L211.267 304.601L210.464 304.004ZM218.512 297.218L218.955 298.115L218.964 298.11L218.512 297.218ZM239.533 297.098L239.076 297.987L239.533 297.098ZM247.1 303.644L246.293 304.235L246.297 304.24L247.1 303.644ZM252.085 313.734L251.132 314.035L251.132 314.038L252.085 313.734ZM254.728 326.707H255.728V326.652L255.722 326.598L254.728 326.707ZM254.728 330.73L255.721 330.842L255.728 330.786V330.73H254.728ZM239.473 359.919L239.021 359.027L239.016 359.029L239.473 359.919ZM218.452 359.739L217.987 360.624L217.992 360.626L218.452 359.739ZM205.42 342.382L204.458 342.658L204.459 342.66L205.42 342.382ZM218.933 337.517L217.953 337.716L217.954 337.723L217.956 337.731L218.933 337.517ZM221.515 344.304L220.655 344.813L220.659 344.821L221.515 344.304ZM226.02 348.868L225.5 349.722L225.51 349.729L225.521 349.735L226.02 348.868ZM245.839 342.502L244.945 342.055L244.942 342.061L245.839 342.502ZM248.361 334.214L249.351 334.357L249.361 334.286V334.214H248.361ZM248.361 323.343H249.361V323.293L249.356 323.242L248.361 323.343ZM246.86 316.737L245.917 317.07L245.92 317.078L245.923 317.086L246.86 316.737ZM243.917 311.392L243.134 312.014L243.142 312.024L243.917 311.392ZM239.293 307.788L238.853 308.686L238.865 308.692L238.877 308.698L239.293 307.788ZM221.575 312.773L220.722 312.251L220.719 312.257L220.715 312.264L221.575 312.773ZM246.959 347.547V268.75H244.959V347.547H246.959ZM245.959 269.75H260.493V267.75H245.959V269.75ZM259.493 268.75V361H261.493V268.75H259.493ZM260.493 360H247.34V362H260.493V360ZM248.335 360.898L246.954 347.445L244.964 347.649L246.346 361.102L248.335 360.898ZM204.678 329.229V327.968H202.678V329.229H204.678ZM204.678 327.968C204.678 323.121 205.249 318.731 206.381 314.791L204.458 314.239C203.268 318.386 202.678 322.965 202.678 327.968H204.678ZM206.381 314.788C207.514 310.804 209.146 307.416 211.263 304.606L209.666 303.403C207.379 306.438 205.647 310.057 204.458 314.241L206.381 314.788ZM211.267 304.601C213.379 301.759 215.941 299.603 218.955 298.114L218.07 296.321C214.758 297.956 211.954 300.324 209.662 303.408L211.267 304.601ZM218.964 298.11C221.971 296.587 225.377 295.815 229.203 295.815V293.815C225.101 293.815 221.379 294.645 218.061 296.326L218.964 298.11ZM229.203 295.815C232.996 295.815 236.278 296.55 239.076 297.987L239.99 296.208C236.862 294.602 233.257 293.815 229.203 293.815V295.815ZM239.076 297.987C241.893 299.434 244.298 301.51 246.293 304.235L247.907 303.053C245.739 300.092 243.099 297.805 239.99 296.208L239.076 297.987ZM246.297 304.24C248.303 306.94 249.918 310.199 251.132 314.035L253.038 313.432C251.77 309.421 250.062 305.954 247.903 303.048L246.297 304.24ZM251.132 314.038C252.35 317.848 253.219 322.106 253.734 326.815L255.722 326.598C255.195 321.778 254.302 317.387 253.038 313.429L251.132 314.038ZM253.728 326.707V330.73H255.728V326.707H253.728ZM253.734 330.619C253.22 335.207 252.351 339.385 251.133 343.156L253.037 343.77C254.301 339.854 255.195 335.543 255.721 330.842L253.734 330.619ZM251.133 343.156C249.921 346.911 248.305 350.134 246.297 352.836L247.903 354.029C250.059 351.126 251.767 347.702 253.037 343.77L251.133 343.156ZM246.297 352.836C244.304 355.519 241.88 357.578 239.021 359.027L239.925 360.811C243.071 359.217 245.732 356.951 247.903 354.029L246.297 352.836ZM239.016 359.029C236.219 360.466 232.918 361.201 229.083 361.201V363.201C233.175 363.201 236.801 362.415 239.93 360.809L239.016 359.029ZM229.083 361.201C225.303 361.201 221.92 360.412 218.913 358.851L217.992 360.626C221.311 362.349 225.015 363.201 229.083 363.201V361.201ZM218.918 358.854C215.933 357.285 213.384 355.084 211.267 352.236L209.662 353.429C211.949 356.506 214.725 358.909 217.987 360.624L218.918 358.854ZM211.267 352.236C209.145 349.38 207.512 346.007 206.38 342.103L204.459 342.66C205.649 346.764 207.38 350.358 209.662 353.429L211.267 352.236ZM206.381 342.106C205.248 338.162 204.678 333.872 204.678 329.229H202.678C202.678 334.036 203.269 338.514 204.458 342.658L206.381 342.106ZM217.152 327.968V329.229H219.152V327.968H217.152ZM217.152 329.229C217.152 332.25 217.417 335.08 217.953 337.716L219.913 337.318C219.407 334.829 219.152 332.134 219.152 329.229H217.152ZM217.956 337.731C218.536 340.382 219.432 342.747 220.655 344.813L222.376 343.794C221.276 341.937 220.451 339.777 219.91 337.303L217.956 337.731ZM220.659 344.821C221.9 346.875 223.515 348.514 225.5 349.722L226.54 348.014C224.841 346.98 223.453 345.577 222.371 343.787L220.659 344.821ZM225.521 349.735C227.582 350.919 230.004 351.49 232.746 351.49V349.49C230.284 349.49 228.22 348.979 226.518 348.001L225.521 349.735ZM232.746 351.49C236.174 351.49 239.087 350.737 241.416 349.155L240.292 347.5C238.377 348.801 235.885 349.49 232.746 349.49V351.49ZM241.416 349.155C243.69 347.61 245.463 345.531 246.736 342.943L244.942 342.061C243.812 344.357 242.262 346.162 240.292 347.5L241.416 349.155ZM246.733 342.949C248.027 340.361 248.897 337.495 249.351 334.357L247.372 334.071C246.945 337.019 246.133 339.678 244.945 342.055L246.733 342.949ZM249.361 334.214V323.343H247.361V334.214H249.361ZM249.356 323.242C249.108 320.803 248.59 318.516 247.797 316.388L245.923 317.086C246.651 319.041 247.134 321.159 247.367 323.444L249.356 323.242ZM247.803 316.404C247.048 314.264 246.013 312.379 244.692 310.759L243.142 312.024C244.303 313.447 245.231 315.125 245.917 317.07L247.803 316.404ZM244.7 310.769C243.359 309.082 241.691 307.784 239.708 306.878L238.877 308.698C240.578 309.474 241.993 310.578 243.134 312.014L244.7 310.769ZM239.732 306.89C237.765 305.928 235.466 305.467 232.866 305.467V307.467C235.232 307.467 237.217 307.886 238.853 308.686L239.732 306.89ZM232.866 305.467C230.082 305.467 227.65 306.058 225.62 307.294L226.66 309.003C228.313 307.996 230.366 307.467 232.866 307.467V305.467ZM225.62 307.294C223.633 308.503 222.001 310.163 220.722 312.251L222.428 313.295C223.552 311.459 224.963 310.036 226.66 309.003L225.62 307.294ZM220.715 312.264C219.49 314.332 218.595 316.719 218.015 319.409L219.97 319.83C220.512 317.316 221.338 315.137 222.436 313.282L220.715 312.264ZM218.015 319.409C217.438 322.088 217.152 324.942 217.152 327.968H219.152C219.152 325.068 219.426 322.356 219.97 319.83L218.015 319.409ZM292.473 359.859L292.089 360.782L292.1 360.787L292.473 359.859ZM282.624 353.192L281.896 353.879L281.901 353.884L282.624 353.192ZM282.684 303.944L283.425 304.615L283.43 304.61L282.684 303.944ZM324.605 303.764L323.825 304.39L323.83 304.396L323.835 304.402L324.605 303.764ZM329.77 313.794L328.809 314.071L328.812 314.08L329.77 313.794ZM331.511 332.833V333.833H332.511V332.833H331.511ZM281.302 332.833H280.302V333.833H281.302V332.833ZM281.302 322.442V321.442H280.302V322.442H281.302ZM317.217 322.442V323.442H318.217V322.442H317.217ZM317.217 321.301H318.217V321.286L318.217 321.271L317.217 321.301ZM315.656 313.974L314.729 314.348L314.731 314.355L314.734 314.362L315.656 313.974ZM297.278 307.908L297.755 308.787L297.762 308.783L297.278 307.908ZM289.771 319.259L288.8 319.017L288.798 319.027L289.771 319.259ZM289.951 338.658L288.996 338.956L288.999 338.965L289.002 338.974L289.951 338.658ZM298.96 349.229L298.526 350.13L298.533 350.133L298.539 350.136L298.96 349.229ZM322.743 342.682L323.438 341.964L322.639 341.19L321.955 342.066L322.743 342.682ZM330.37 350.069L331.195 350.635L331.673 349.939L331.066 349.351L330.37 350.069ZM324.905 355.955L325.54 356.728L325.548 356.721L324.905 355.955ZM316.677 360.459L316.34 359.518L316.336 359.519L316.677 360.459ZM305.506 361.201C300.81 361.201 296.595 360.438 292.846 358.931L292.1 360.787C296.119 362.402 300.592 363.201 305.506 363.201V361.201ZM292.858 358.936C289.134 357.384 285.968 355.238 283.346 352.501L281.901 353.884C284.725 356.832 288.125 359.13 292.089 360.782L292.858 358.936ZM283.351 352.506C280.764 349.765 278.771 346.537 277.374 342.811L275.501 343.514C276.987 347.476 279.118 350.934 281.896 353.879L283.351 352.506ZM277.374 342.811C275.978 339.089 275.275 335.065 275.275 330.73H273.275C273.275 335.285 274.014 339.549 275.501 343.514L277.374 342.811ZM275.275 330.73V328.328H273.275V330.73H275.275ZM275.275 328.328C275.275 323.34 276.002 318.852 277.439 314.853L275.557 314.177C274.03 318.425 273.275 323.146 273.275 328.328H275.275ZM277.439 314.853C278.881 310.838 280.88 307.431 283.425 304.615L281.942 303.274C279.203 306.304 277.077 309.944 275.557 314.177L277.439 314.853ZM283.43 304.61C285.977 301.754 288.982 299.578 292.45 298.075L291.655 296.24C287.917 297.86 284.675 300.209 281.937 303.279L283.43 304.61ZM292.45 298.075C295.92 296.572 299.687 295.815 303.764 295.815V293.815C299.433 293.815 295.393 294.62 291.655 296.24L292.45 298.075ZM303.764 295.815C308.298 295.815 312.217 296.577 315.547 298.07L316.365 296.245C312.728 294.615 308.52 293.815 303.764 293.815V295.815ZM315.547 298.07C318.893 299.57 321.646 301.677 323.825 304.39L325.384 303.138C322.998 300.166 319.986 297.868 316.365 296.245L315.547 298.07ZM323.835 304.402C326.06 307.088 327.722 310.305 328.809 314.071L330.73 313.517C329.575 309.515 327.794 306.046 325.375 303.126L323.835 304.402ZM328.812 314.08C329.941 317.858 330.511 322.044 330.511 326.646H332.511C332.511 321.88 331.921 317.497 330.728 313.508L328.812 314.08ZM330.511 326.646V332.833H332.511V326.646H330.511ZM331.511 331.833H281.302V333.833H331.511V331.833ZM282.302 332.833V322.442H280.302V332.833H282.302ZM281.302 323.442H317.217V321.442H281.302V323.442ZM318.217 322.442V321.301H316.217V322.442H318.217ZM318.217 321.271C318.133 318.552 317.589 315.987 316.577 313.586L314.734 314.362C315.645 316.525 316.141 318.846 316.218 321.332L318.217 321.271ZM316.583 313.6C315.595 311.151 314.059 309.156 311.981 307.641L310.803 309.257C312.568 310.544 313.875 312.233 314.729 314.348L316.583 313.6ZM311.981 307.641C309.837 306.078 307.047 305.347 303.704 305.347V307.347C306.768 307.347 309.102 308.017 310.803 309.257L311.981 307.641ZM303.704 305.347C301.153 305.347 298.841 305.901 296.794 307.033L297.762 308.783C299.479 307.833 301.451 307.347 303.704 307.347V305.347ZM296.8 307.03C294.798 308.118 293.137 309.701 291.813 311.75L293.493 312.835C294.652 311.041 296.074 309.701 297.755 308.787L296.8 307.03ZM291.813 311.75C290.501 313.782 289.502 316.211 288.8 319.017L290.741 319.502C291.401 316.862 292.324 314.647 293.493 312.835L291.813 311.75ZM288.798 319.027C288.136 321.8 287.81 324.903 287.81 328.328H289.81C289.81 325.027 290.124 322.084 290.743 319.492L288.798 319.027ZM287.81 328.328V330.73H289.81V328.328H287.81ZM287.81 330.73C287.81 333.663 288.202 336.407 288.996 338.956L290.906 338.361C290.178 336.025 289.81 333.483 289.81 330.73H287.81ZM289.002 338.974C289.84 341.488 291.061 343.704 292.67 345.61L294.198 344.319C292.764 342.621 291.663 340.633 290.899 338.342L289.002 338.974ZM292.67 345.61C294.284 347.521 296.239 349.029 298.526 350.13L299.393 348.328C297.356 347.346 295.627 346.011 294.198 344.319L292.67 345.61ZM298.539 350.136C300.853 351.207 303.462 351.73 306.347 351.73V349.73C303.706 349.73 301.391 349.252 299.38 348.321L298.539 350.136ZM306.347 351.73C309.967 351.73 313.231 351.001 316.113 349.517L315.198 347.739C312.635 349.058 309.693 349.73 306.347 349.73V351.73ZM316.113 349.517C318.973 348.045 321.445 345.967 323.531 343.298L321.955 342.066C320.036 344.522 317.784 346.408 315.198 347.739L316.113 349.517ZM322.047 343.4L329.674 350.788L331.066 349.351L323.438 341.964L322.047 343.4ZM329.546 349.503C328.204 351.459 326.447 353.355 324.262 355.189L325.548 356.721C327.847 354.791 329.734 352.764 331.195 350.635L329.546 349.503ZM324.27 355.182C322.132 356.939 319.495 358.389 316.34 359.518L317.014 361.401C320.346 360.208 323.194 358.655 325.54 356.728L324.27 355.182ZM316.336 359.519C313.265 360.632 309.661 361.201 305.506 361.201V363.201C309.839 363.201 313.682 362.609 317.018 361.4L316.336 359.519Z" fill="#2556B9" mask="url(#path-1-outside-1_51_1448)"/>
</svg>
