<svg width="16" height="16" viewBox="0 0 16 16" fill="none" xmlns="http://www.w3.org/2000/svg">
<path d="M10.9696 13.0902V11.969C10.9696 11.3742 10.7334 10.8039 10.3128 10.3833C9.8923 9.96282 9.32193 9.72656 8.72721 9.72656H4.2424C3.64768 9.72656 3.07732 9.96282 2.65678 10.3833C2.23625 10.8039 2 11.3742 2 11.969V13.0902" stroke="white" stroke-width="1.26135" stroke-linecap="round" stroke-linejoin="round"/>
<path d="M6.48459 7.48481C7.72304 7.48481 8.727 6.48085 8.727 5.2424C8.727 4.00396 7.72304 3 6.48459 3C5.24615 3 4.24219 4.00396 4.24219 5.2424C4.24219 6.48085 5.24615 7.48481 6.48459 7.48481Z" stroke="white" stroke-width="1.26135" stroke-linecap="round" stroke-linejoin="round"/>
<path d="M14.3341 13.0915V11.9703C14.3338 11.4735 14.1684 10.9908 13.864 10.5981C13.5596 10.2055 13.1334 9.92499 12.6523 9.80078" stroke="white" stroke-width="1.26135" stroke-linecap="round" stroke-linejoin="round"/>
<path d="M10.4092 3.07031C10.8915 3.19381 11.3191 3.47434 11.6244 3.86766C11.9297 4.26098 12.0954 4.74473 12.0954 5.24264C12.0954 5.74055 11.9297 6.2243 11.6244 6.61762C11.3191 7.01094 10.8915 7.29147 10.4092 7.41497" stroke="white" stroke-width="1.26135" stroke-linecap="round" stroke-linejoin="round"/>
</svg>
