<svg width="24" height="20" viewBox="0 0 24 20" fill="none" xmlns="http://www.w3.org/2000/svg">
<path fill-rule="evenodd" clip-rule="evenodd" d="M24 2.55669C23.1177 2.94867 22.1681 3.21265 21.1722 3.33184C22.1889 2.72228 22.9697 1.75754 23.3368 0.60802C22.3865 1.17278 21.3314 1.58156 20.2107 1.80314C19.3123 0.846407 18.0316 0.248047 16.6165 0.248047C13.8975 0.248047 11.6928 2.4527 11.6928 5.17172C11.6928 5.55729 11.7368 5.93327 11.8208 6.29404C7.72829 6.08926 4.10053 4.12859 1.67189 1.14959C1.24792 1.87674 1.00553 2.72229 1.00553 3.62463C1.00553 5.33251 1.87347 6.83961 3.19579 7.72276C2.38784 7.69716 1.62949 7.47557 0.964734 7.10679V7.16839C0.964734 9.55463 2.66302 11.5441 4.91407 11.9977C4.5013 12.1097 4.06613 12.1705 3.61736 12.1705C3.29978 12.1705 2.991 12.1393 2.69022 12.0817C3.31658 14.0375 5.13566 15.4614 7.28991 15.5014C5.60523 16.8213 3.48217 17.6093 1.17512 17.6093C0.776747 17.6093 0.384774 17.5861 0 17.5397C2.17905 18.9364 4.76688 19.7523 7.5475 19.7523C16.6037 19.7523 21.5562 12.2496 21.5562 5.74368C21.5562 5.53009 21.5522 5.31731 21.5418 5.10693C22.5049 4.41097 23.34 3.54383 24 2.55669Z" fill="black"/>
</svg>
